<svg xml:space="preserve" style="enable-background:new 0 0 786.5 253.3;" viewBox="0 0 786.5 253.3" y="0px" x="0px" xmlns:xlink="http://www.w3.org/1999/xlink" xmlns="http://www.w3.org/2000/svg" version="1.1">
<style type="text/css">
	.st0{fill:#3B459E;}
	.st1{fill:#E6E6E6;}
	.st2{fill:#5467FD;}
	.st3{fill:#E11F1D;}
	.st4{fill:#606060;}
	.st5{fill:#3D4A5E;}
	.st6{fill:#FFFFFF;stroke:#231F20;stroke-miterlimit:10;}
	.st7{fill:none;stroke:#000000;stroke-miterlimit:10;}
	.st8{fill:none;stroke:#231F20;stroke-miterlimit:10;}
	.st9{fill:#FFFFFF;}
	.st10{font-family:'Graphik-Semibold';}
	.st11{font-size:8px;}
</style>
<g id="Layer_5">
</g>
<g id="Layer_3">
</g>
<g id="Layer_4">
	<g>
		<rect height="22.2" width="22.2" class="st0" y="162.6" x="26.4"></rect>
		<rect height="22.2" width="22.2" class="st1" y="138.3" x="26.4"></rect>
		<rect height="22.2" width="22.2" class="st1" y="113.9" x="26.4"></rect>
		<rect height="22.2" width="22.2" class="st2" y="89.5" x="26.4"></rect>
		<rect height="22.2" width="22.2" class="st1" y="162.6" x="51"></rect>
		<rect height="22.2" width="22.2" class="st1" y="138.3" x="51"></rect>
		<rect height="22.2" width="22.2" class="st3" y="113.9" x="51"></rect>
		<rect height="22.2" width="22.2" class="st1" y="89.5" x="51"></rect>
		<rect height="22.2" width="22.2" class="st1" y="162.6" x="75.6"></rect>
		<rect height="22.2" width="22.2" class="st4" y="138.3" x="75.6"></rect>
		<rect height="22.2" width="22.2" class="st1" y="113.9" x="75.6"></rect>
		<rect height="22.2" width="22.2" class="st5" y="89.5" x="75.6"></rect>
		<rect height="22.2" width="22.2" class="st1" y="162.6" x="99.9"></rect>
		<rect height="22.2" width="22.2" class="st1" y="138.3" x="99.9"></rect>
		<rect height="22.2" width="22.2" class="st1" y="113.9" x="99.9"></rect>
		<rect height="22.2" width="22.2" class="st1" y="89.5" x="99.9"></rect>
	</g>
	<g>
		<path d="M55.7,211.2L55.7,211.2c0-2.2,1.5-3.7,3.5-3.7c1.7,0,3,0.8,3.2,2.6h-1.7c-0.1-0.9-0.6-1.3-1.5-1.3c-1.1,0-1.8,0.9-1.8,2.4
			v0.1c0,1.5,0.7,2.3,1.9,2.3c0.9,0,1.5-0.5,1.6-1.4h1.6c-0.2,1.8-1.4,2.7-3.2,2.7C56.9,214.9,55.7,213.4,55.7,211.2z"></path>
		<path d="M63.1,212.2L63.1,212.2c0-1.7,1.2-2.8,2.8-2.8c1.6,0,2.7,1,2.7,2.7v0.1c0,1.6-1.2,2.7-2.8,2.7
			C64.3,214.9,63.1,213.8,63.1,212.2z M67.1,212.2L67.1,212.2c0-1.1-0.5-1.7-1.3-1.7c-0.8,0-1.3,0.6-1.3,1.6v0.1
			c0,1,0.5,1.6,1.3,1.6C66.7,213.8,67.1,213.2,67.1,212.2z"></path>
		<path d="M69.6,207.2H71v7.6h-1.4V207.2z"></path>
		<path d="M72.3,212.9v-3.4h1.4v3.2c0,0.7,0.3,1,0.9,1c0.6,0,1.1-0.4,1.1-1.1v-3.1h1.4v5.2h-1.4v-0.8c-0.3,0.5-0.8,0.9-1.7,0.9
			C73.1,214.9,72.3,214.3,72.3,212.9z"></path>
		<path d="M78.5,209.5h1.4v0.8c0.3-0.5,0.8-0.9,1.6-0.9c0.7,0,1.2,0.3,1.5,0.9c0.4-0.6,1.1-0.9,1.8-0.9c1,0,1.7,0.6,1.7,2v3.3H85
			v-3.2c0-0.7-0.3-1-0.8-1c-0.6,0-1,0.4-1,1.1v3.1h-1.4v-3.2c0-0.7-0.3-1-0.8-1c-0.6,0-1,0.4-1,1.1v3.1h-1.4V209.5z"></path>
		<path d="M87.7,209.5h1.4v0.8c0.3-0.5,0.8-1,1.7-1c1,0,1.8,0.6,1.8,2v3.3h-1.4v-3.1c0-0.7-0.3-1-0.9-1c-0.6,0-1.1,0.4-1.1,1.1v3
			h-1.4V209.5z"></path>
	</g>
	<g>
		<line y2="201.1" x2="264.7" y1="166.1" x1="261.4" class="st6"></line>
		<line y2="138" x2="223.1" y1="167.3" x1="193.8" class="st6"></line>
		<line y2="110.4" x2="189.3" y1="132.4" x1="225.3" class="st6"></line>
		<line y2="106.5" x2="190.4" y1="85.1" x1="223.1" class="st6"></line>
		<line y2="128.4" x2="223.6" y1="90.7" x1="223.6" class="st6"></line>
		<line y2="107.6" x2="265.3" y1="132.9" x1="231" class="st6"></line>
		<line y2="158.3" x2="256.3" y1="140.2" x1="230.4" class="st6"></line>
		<line y2="205.2" x2="265.1" y1="161.8" x1="261.3" class="st6"></line>
		<circle r="10.3" cy="106.9" cx="184.4" class="st3"></circle>
		<circle r="10.3" cy="167.2" cx="189.5" class="st0"></circle>
		<circle r="10.3" cy="82.1" cx="224.8" class="st5"></circle>
		<circle r="10.3" cy="104" cx="265.7" class="st2"></circle>
		<circle r="10.3" cy="158" cx="260"></circle>
		<circle r="10.3" cy="204.8" cx="265" class="st1"></circle>
		<circle r="10.3" cy="133.8" cx="222.5" class="st1"></circle>
	</g>
	<g>
		<path d="M202.9,211.2L202.9,211.2c0-2.2,1.5-3.7,3.6-3.7c1.6,0,3,0.7,3.2,2.5h-1.6c-0.1-0.8-0.7-1.2-1.5-1.2c-1.2,0-2,0.9-2,2.4
			v0.1c0,1.4,0.6,2.4,2,2.4c1.2,0,1.7-0.7,1.7-1.5h-1.6v-1.2h3.2v0.8c0,1.9-1.2,3.2-3.4,3.2C204.2,214.9,202.9,213.4,202.9,211.2z"></path>
		<path d="M210.9,209.5h1.4v1c0.3-0.7,0.8-1.1,1.7-1.1v1.3c-1.1,0-1.7,0.3-1.7,1.3v2.6h-1.4V209.5z"></path>
		<path d="M214.5,213.3c0-1.2,1.1-1.7,2.7-1.7h0.6v-0.2c0-0.6-0.2-1-0.8-1c-0.6,0-0.8,0.3-0.9,0.7h-1.4c0.1-1.2,1.1-1.8,2.3-1.8
			s2.2,0.5,2.2,1.9v3.4h-1.4v-0.6c-0.3,0.4-0.8,0.7-1.6,0.7C215.3,214.9,214.5,214.4,214.5,213.3z M217.8,212.9v-0.4h-0.6
			c-0.8,0-1.3,0.2-1.3,0.7c0,0.4,0.2,0.6,0.8,0.6C217.4,213.9,217.8,213.5,217.8,212.9z"></path>
		<path d="M220.5,209.5h1.4v0.8c0.3-0.5,0.9-0.9,1.7-0.9c1.3,0,2.3,1,2.3,2.7v0.1c0,1.7-1,2.7-2.3,2.7c-0.8,0-1.4-0.4-1.7-0.9v2.6
			h-1.4V209.5z M224.4,212.2L224.4,212.2c0-1.1-0.5-1.7-1.2-1.7c-0.8,0-1.3,0.5-1.3,1.6v0.1c0,1,0.5,1.6,1.3,1.6
			C224,213.7,224.4,213.2,224.4,212.2z"></path>
		<path d="M226.9,207.2h1.4v3.2c0.3-0.5,0.8-1,1.7-1c1,0,1.8,0.6,1.8,2v3.3h-1.4v-3.1c0-0.7-0.3-1-0.9-1c-0.6,0-1.1,0.4-1.1,1.1v3
			h-1.4V207.2z"></path>
	</g>
	<g>
		<path d="M668.1,207.6h2.3c2.5,0,3.7,1.4,3.7,3.5v0.1c0,2.1-1.2,3.6-3.8,3.6h-2.3V207.6z M670.4,213.5c1.4,0,2.1-0.8,2.1-2.3v-0.1
			c0-1.5-0.6-2.3-2.1-2.3h-0.6v4.6H670.4z"></path>
		<path d="M674.9,212.2L674.9,212.2c0-1.7,1.2-2.8,2.8-2.8c1.6,0,2.7,1,2.7,2.7v0.1c0,1.6-1.2,2.7-2.8,2.7
			C676.1,214.9,674.9,213.8,674.9,212.2z M679,212.2L679,212.2c0-1.1-0.5-1.7-1.3-1.7c-0.8,0-1.3,0.6-1.3,1.6v0.1
			c0,1,0.5,1.6,1.3,1.6C678.5,213.8,679,213.2,679,212.2z"></path>
		<path d="M681.1,212.2L681.1,212.2c0-1.8,1.2-2.8,2.7-2.8c1.2,0,2.3,0.5,2.5,2h-1.4c-0.1-0.6-0.5-0.9-1.1-0.9
			c-0.8,0-1.2,0.6-1.2,1.6v0.1c0,1,0.5,1.6,1.3,1.6c0.6,0,1-0.3,1.1-1h1.3c-0.1,1.2-1,2.1-2.5,2.1
			C682.2,214.9,681.1,213.9,681.1,212.2z"></path>
		<path d="M687.1,212.9v-3.4h1.4v3.2c0,0.7,0.3,1,0.9,1c0.6,0,1.1-0.4,1.1-1.1v-3.1h1.4v5.2h-1.4v-0.8c-0.3,0.5-0.8,0.9-1.7,0.9
			C687.9,214.9,687.1,214.3,687.1,212.9z"></path>
		<path d="M693.3,209.5h1.4v0.8c0.3-0.5,0.8-0.9,1.6-0.9c0.7,0,1.2,0.3,1.5,0.9c0.4-0.6,1.1-0.9,1.8-0.9c1,0,1.7,0.6,1.7,2v3.3h-1.4
			v-3.2c0-0.7-0.3-1-0.8-1c-0.6,0-1,0.4-1,1.1v3.1h-1.4v-3.2c0-0.7-0.3-1-0.8-1c-0.6,0-1,0.4-1,1.1v3.1h-1.4V209.5z"></path>
		<path d="M702.2,212.2L702.2,212.2c0-1.7,1.2-2.8,2.7-2.8c1.3,0,2.5,0.8,2.5,2.7v0.4h-3.8c0,0.9,0.5,1.4,1.3,1.4
			c0.7,0,1-0.3,1.1-0.7h1.4c-0.2,1.1-1.1,1.8-2.5,1.8C703.4,214.9,702.2,213.9,702.2,212.2z M706,211.6c-0.1-0.8-0.5-1.2-1.1-1.2
			c-0.6,0-1.1,0.4-1.2,1.2H706z"></path>
		<path d="M708.4,209.5h1.4v0.8c0.3-0.5,0.8-1,1.7-1c1,0,1.8,0.6,1.8,2v3.3h-1.4v-3.1c0-0.7-0.3-1-0.9-1c-0.6,0-1.1,0.4-1.1,1.1v3
			h-1.4V209.5z"></path>
		<path d="M714.8,213.2v-2.6h-0.7v-1h0.7v-1.1h1.4v1.1h1.1v1h-1.1v2.5c0,0.4,0.2,0.6,0.6,0.6c0.2,0,0.4,0,0.5-0.1v1.1
			c-0.2,0.1-0.5,0.1-0.9,0.1C715.4,214.9,714.8,214.3,714.8,213.2z"></path>
	</g>
	<g>
		<polyline points="633.6,167.6 693.8,96.6 755.4,171.6" class="st7"></polyline>
		<line y2="172.1" x2="693.8" y1="139.5" x1="721.4" class="st7"></line>
		<g>
			<circle r="10.3" cy="171.6" cx="755.4" class="st3"></circle>
			<circle r="10.3" cy="133.8" cx="661.7" class="st0"></circle>
			<circle r="10.3" cy="172.1" cx="693.8" class="st5"></circle>
			<circle r="10.3" cy="133.7" cx="724.6" class="st2"></circle>
			<circle r="10.3" cy="172.1" cx="629.6" class="st1"></circle>
			<circle r="10.3" cy="96.6" cx="693.8" class="st1"></circle>
		</g>
	</g>
	<g>
		<path d="M485.7,207.6h1.6v3.1l2.5-3.1h1.7l-2.8,3.4l3,3.8h-1.9l-2.5-3.2v3.2h-1.6V207.6z"></path>
		<path d="M491.7,212.2L491.7,212.2c0-1.7,1.2-2.8,2.7-2.8c1.3,0,2.5,0.8,2.5,2.7v0.4h-3.8c0,0.9,0.5,1.4,1.3,1.4
			c0.7,0,1-0.3,1.1-0.7h1.4c-0.2,1.1-1.1,1.8-2.5,1.8C492.8,214.9,491.7,213.9,491.7,212.2z M495.5,211.6c0-0.8-0.5-1.2-1.1-1.2
			c-0.6,0-1.1,0.4-1.2,1.2H495.5z"></path>
		<path d="M499.3,214.3l-2.1-4.7h1.6l1.3,3.1l1.2-3.1h1.4l-2.8,7h-1.4L499.3,214.3z"></path>
		<path d="M503,211.4h2.6v1.1H503V211.4z"></path>
		<path d="M505.7,207.6h1.7l1.7,5.5l1.7-5.5h1.5l-2.4,7.1h-1.9L505.7,207.6z"></path>
		<path d="M512.3,213.3c0-1.2,1.1-1.7,2.7-1.7h0.6v-0.2c0-0.6-0.2-1-0.8-1c-0.6,0-0.8,0.3-0.9,0.7h-1.4c0.1-1.2,1.1-1.8,2.3-1.8
			s2.2,0.5,2.2,1.9v3.4h-1.4v-0.6c-0.3,0.4-0.8,0.7-1.6,0.7C513.1,214.9,512.3,214.4,512.3,213.3z M515.6,213v-0.4h-0.6
			c-0.8,0-1.3,0.2-1.3,0.7c0,0.4,0.2,0.6,0.8,0.6C515.1,213.9,515.6,213.5,515.6,213z"></path>
		<path d="M518.3,207.2h1.4v7.6h-1.4V207.2z"></path>
		<path d="M521,212.9v-3.4h1.4v3.2c0,0.7,0.3,1,0.9,1c0.6,0,1.1-0.4,1.1-1.1v-3.1h1.4v5.2h-1.4V214c-0.3,0.5-0.8,0.9-1.7,0.9
			C521.8,214.9,521,214.3,521,212.9z"></path>
		<path d="M526.9,212.2L526.9,212.2c0-1.7,1.2-2.8,2.7-2.8c1.3,0,2.5,0.8,2.5,2.7v0.4h-3.8c0,0.9,0.5,1.4,1.3,1.4
			c0.7,0,1-0.3,1.1-0.7h1.4c-0.2,1.1-1.1,1.8-2.5,1.8C528,214.9,526.9,213.9,526.9,212.2z M530.7,211.6c-0.1-0.8-0.5-1.2-1.1-1.2
			c-0.6,0-1.1,0.4-1.2,1.2H530.7z"></path>
	</g>
	<path d="M489.5,96.2h29.6C519.1,96.2,491.2,96.2,489.5,96.2z" class="st8"></path>
	<g>
		<rect height="23.1" width="44.5" class="st0" y="84.6" x="449.2"></rect>
		<text class="st9 st10 st11" transform="matrix(1 0 0 1 464.3193 98.6802)">Key</text>
	</g>
	<g>
		<rect height="23.1" width="55.6" class="st1" y="84.6" x="512.6"></rect>
		<text class="st10 st11" transform="matrix(1 0 0 1 529.6736 98.6802)">Value</text>
	</g>
	<g>
		<path d="M489.5,122.3h29.6C519.1,122.3,491.2,122.3,489.5,122.3z" class="st8"></path>
		<g>
			<rect height="23.1" width="44.5" class="st0" y="110.8" x="449.2"></rect>
			<text class="st9 st10 st11" transform="matrix(1 0 0 1 464.3193 124.8653)">Key</text>
		</g>
		<g>
			<rect height="23.1" width="55.6" class="st1" y="110.8" x="512.6"></rect>
			<text class="st10 st11" transform="matrix(1 0 0 1 529.6736 124.8652)">Value</text>
		</g>
	</g>
	<g>
		<g>
			<path d="M489.5,148.5h29.6C519.1,148.5,491.2,148.5,489.5,148.5z" class="st8"></path>
			<g>
				<rect height="23.1" width="44.5" class="st0" y="137" x="449.2"></rect>
				<text class="st9 st10 st11" transform="matrix(1 0 0 1 464.3193 151.0503)">Key</text>
			</g>
			<g>
				<rect height="23.1" width="55.6" class="st1" y="137" x="512.6"></rect>
				<text class="st10 st11" transform="matrix(1 0 0 1 529.6736 151.0503)">Value</text>
			</g>
		</g>
		<g>
			<path d="M489.5,174.7h29.6C519.1,174.7,491.2,174.7,489.5,174.7z" class="st8"></path>
			<g>
				<rect height="23.1" width="44.5" class="st0" y="163.2" x="449.2"></rect>
				<text class="st9 st10 st11" transform="matrix(1 0 0 1 464.3193 177.2354)">Key</text>
			</g>
			<g>
				<rect height="23.1" width="55.6" class="st1" y="163.2" x="512.6"></rect>
				<text class="st10 st11" transform="matrix(1 0 0 1 529.6736 177.2354)">Value</text>
			</g>
		</g>
	</g>
	<g>
		<path d="M336.1,207.6h1.6v7.1h-1.6V207.6z"></path>
		<path d="M339.2,209.6h1.4v0.8c0.3-0.5,0.8-0.9,1.7-0.9c1,0,1.8,0.6,1.8,2v3.3h-1.4v-3.1c0-0.7-0.3-1-0.9-1c-0.6,0-1.1,0.4-1.1,1.1
			v3h-1.4V209.6z"></path>
		<path d="M345.2,211.4h2.6v1.1h-2.6V211.4z"></path>
		<path d="M349.1,207.6h2.1l1.7,4.4l1.6-4.4h2.1v7.1H355v-5l-2,5h-0.5l-2-5v5h-1.4V207.6z"></path>
		<path d="M357.7,212.2L357.7,212.2c0-1.7,1.2-2.8,2.7-2.8c1.3,0,2.5,0.8,2.5,2.7v0.4h-3.8c0,0.9,0.5,1.4,1.3,1.4
			c0.7,0,1-0.3,1.1-0.7h1.4c-0.2,1.1-1.1,1.8-2.5,1.8C358.8,214.9,357.7,213.9,357.7,212.2z M361.5,211.6c-0.1-0.8-0.5-1.2-1.1-1.2
			c-0.6,0-1.1,0.4-1.2,1.2H361.5z"></path>
		<path d="M363.9,209.6h1.4v0.8c0.3-0.5,0.8-0.9,1.6-0.9c0.7,0,1.2,0.3,1.5,0.9c0.4-0.6,1.1-0.9,1.8-0.9c1,0,1.7,0.6,1.7,2v3.3h-1.4
			v-3.2c0-0.7-0.3-1-0.8-1c-0.6,0-1,0.4-1,1.1v3.1h-1.4v-3.2c0-0.7-0.3-1-0.8-1c-0.6,0-1,0.4-1,1.1v3.1h-1.4V209.6z"></path>
		<path d="M372.8,212.2L372.8,212.2c0-1.7,1.2-2.8,2.8-2.8c1.6,0,2.7,1,2.7,2.7v0.1c0,1.6-1.2,2.7-2.8,2.7
			C374,214.9,372.8,213.9,372.8,212.2z M376.8,212.2L376.8,212.2c0-1.1-0.5-1.7-1.3-1.7c-0.8,0-1.3,0.6-1.3,1.6v0.1
			c0,1,0.5,1.6,1.3,1.6C376.4,213.8,376.8,213.2,376.8,212.2z"></path>
		<path d="M379.3,209.6h1.4v1c0.3-0.7,0.8-1.1,1.7-1.1v1.3c-1.1,0-1.7,0.3-1.7,1.3v2.6h-1.4V209.6z"></path>
		<path d="M385,214.3l-2.1-4.7h1.6l1.3,3.1l1.2-3.1h1.4l-2.8,7h-1.4L385,214.3z"></path>
	</g>
	<line y2="214.6" x2="-45.4" y1="74.1" x1="-45.4" class="st7"></line>
	<g>
		<circle r="2.4" cy="100.2" cx="343.8" class="st3"></circle>
		<circle r="2.4" cy="100.2" cx="353.6" class="st3"></circle>
		<circle r="2.4" cy="100.2" cx="363.4" class="st3"></circle>
		<circle r="2.4" cy="100.2" cx="373.2" class="st3"></circle>
		<circle r="2.4" cy="100.2" cx="383" class="st3"></circle>
		<circle r="2.4" cy="100.2" cx="392.8" class="st3"></circle>
	</g>
	<g>
		<circle r="2.4" cy="168.3" cx="337.4" class="st3"></circle>
		<circle r="2.4" cy="168.3" cx="347.2" class="st3"></circle>
		<circle r="2.4" cy="168.3" cx="357" class="st3"></circle>
		<circle r="2.4" cy="168.3" cx="366.8" class="st3"></circle>
		<circle r="2.4" cy="168.3" cx="376.5" class="st3"></circle>
		<circle r="2.4" cy="168.3" cx="386.3" class="st3"></circle>
	</g>
	<path d="M392.5,104.8h-61.2c-3.4,0-6.1,2.7-6.1,6.1v46.5c0,3.4,2.7,6.1,6.1,6.1h61.2c3.4,0,6.1-2.7,6.1-6.1v-46.5
		C398.6,107.5,395.9,104.8,392.5,104.8z" class="st3"></path>
	<g>
		<polygon points="373.7,134.4 363.8,152.4 383.3,152.4" class="st9"></polygon>
		<g>
			<rect height="17.2" width="17.1" class="st9" y="115.3" x="365"></rect>
			<g>
				<circle r="8.6" cy="144.6" cx="349.4" class="st9"></circle>
				<polygon points="358.4,121.8 352.2,120.9 349.4,115.1 346.6,120.7 340.4,121.6 344.9,125.9 343.8,132.3 
					349.4,129.3 355,132.3 353.9,126.1" class="st9"></polygon>
			</g>
		</g>
	</g>
</g>
<g id="Layer_2">
	<g>
		<path d="M340.9,23.3h2.7l3.9,6.7v-6.7h2v10.2h-2.3l-4.2-7.2v7.2h-2V23.3z"></path>
		<path d="M351,29.9v-0.1c0-2.3,1.7-3.9,3.9-3.9c2.2,0,3.9,1.5,3.9,3.8v0.1c0,2.3-1.7,3.8-3.9,3.8C352.7,33.7,351,32.2,351,29.9z
			 M356.7,29.8L356.7,29.8c0-1.5-0.7-2.4-1.8-2.4c-1.1,0-1.8,0.8-1.8,2.2v0.1c0,1.4,0.7,2.3,1.8,2.3
			C356.1,32.1,356.7,31.2,356.7,29.8z"></path>
		<path d="M359.7,30.3h2.2c0.1,0.9,0.5,1.7,2,1.7c1,0,1.7-0.6,1.7-1.4c0-0.8-0.4-1.1-1.9-1.3c-2.6-0.3-3.7-1.1-3.7-3.1
			c0-1.7,1.5-3,3.7-3c2.3,0,3.6,1,3.8,3h-2.1c-0.1-0.9-0.7-1.4-1.7-1.4c-1,0-1.5,0.5-1.5,1.2c0,0.7,0.3,1.1,1.9,1.3
			c2.5,0.3,3.7,1,3.7,3.1c0,1.8-1.5,3.2-3.9,3.2C361.1,33.7,359.9,32.4,359.7,30.3z"></path>
		<path d="M376,33.4c-0.6,0.2-1.2,0.3-1.9,0.3c-3.2,0-5.2-2.2-5.2-5.2v-0.1c0-3,2.2-5.2,5.2-5.2c3.1,0,5.2,2.1,5.2,5.1v0.1
			c0,1.6-0.6,3.1-1.7,4l1,1.1l-1.3,1.3L376,33.4z M374.6,31.9l-1-1.1l1.3-1.3l1.3,1.4c0.4-0.6,0.7-1.4,0.7-2.4v-0.1
			c0-2-1.1-3.3-2.8-3.3c-1.8,0-2.8,1.3-2.8,3.3v0.1c0,2.1,1.2,3.4,2.9,3.4C374.3,31.9,374.5,31.9,374.6,31.9z"></path>
		<path d="M381,23.3h2.3v8.4h4.1v1.8H381V23.3z"></path>
		<path d="M392.1,23.3h3.3c3.6,0,5.3,1.9,5.3,5v0.1c0,3-1.8,5.1-5.3,5.1h-3.3V23.3z M395.4,31.7c2,0,3-1.2,3-3.3v-0.1
			c0-2.1-0.9-3.2-3-3.2h-0.9v6.6H395.4z"></path>
		<path d="M401.8,31.4c0-1.7,1.6-2.4,3.9-2.4h0.8v-0.3c0-0.9-0.3-1.4-1.2-1.4c-0.8,0-1.2,0.4-1.3,1.1h-1.9c0.1-1.8,1.5-2.5,3.3-2.5
			s3.1,0.7,3.1,2.8v4.8h-2v-0.9c-0.4,0.6-1.1,1.1-2.2,1.1C402.9,33.7,401.8,33,401.8,31.4z M406.5,30.9v-0.6h-0.8
			c-1.2,0-1.9,0.3-1.9,1.1c0,0.5,0.3,0.9,1.1,0.9C405.8,32.2,406.5,31.7,406.5,30.9z"></path>
		<path d="M410.6,31.3v-3.8h-1v-1.5h1v-1.6h2v1.6h1.6v1.5h-1.6v3.6c0,0.6,0.3,0.9,0.8,0.9c0.3,0,0.5,0,0.8-0.1v1.6
			c-0.3,0.1-0.7,0.2-1.3,0.2C411.5,33.7,410.6,32.9,410.6,31.3z"></path>
		<path d="M415.3,31.4c0-1.7,1.6-2.4,3.9-2.4h0.8v-0.3c0-0.9-0.3-1.4-1.2-1.4c-0.8,0-1.2,0.4-1.3,1.1h-1.9c0.1-1.8,1.5-2.5,3.3-2.5
			s3.1,0.7,3.1,2.8v4.8h-2v-0.9c-0.4,0.6-1.1,1.1-2.2,1.1C416.4,33.7,415.3,33,415.3,31.4z M420,30.9v-0.6h-0.8
			c-1.2,0-1.9,0.3-1.9,1.1c0,0.5,0.3,0.9,1.1,0.9C419.3,32.2,420,31.7,420,30.9z"></path>
		<path d="M425.8,32.3v1.2h-2.1V22.7h2.1v4.5c0.4-0.7,1.3-1.3,2.4-1.3c1.8,0,3.2,1.4,3.2,3.8v0.1c0,2.5-1.4,3.8-3.2,3.8
			C427.1,33.7,426.2,33.1,425.8,32.3z M429.4,29.8v-0.1c0-1.5-0.7-2.2-1.8-2.2c-1.1,0-1.8,0.8-1.8,2.2v0.1c0,1.5,0.7,2.2,1.8,2.2
			C428.7,32.1,429.4,31.3,429.4,29.8z"></path>
		<path d="M432.4,31.4c0-1.7,1.6-2.4,3.9-2.4h0.8v-0.3c0-0.9-0.3-1.4-1.2-1.4c-0.8,0-1.2,0.4-1.3,1.1h-1.9c0.1-1.8,1.5-2.5,3.3-2.5
			s3.1,0.7,3.1,2.8v4.8h-2v-0.9c-0.4,0.6-1.1,1.1-2.2,1.1C433.5,33.7,432.4,33,432.4,31.4z M437.1,30.9v-0.6h-0.8
			c-1.2,0-1.9,0.3-1.9,1.1c0,0.5,0.3,0.9,1.1,0.9C436.4,32.2,437.1,31.7,437.1,30.9z"></path>
		<path d="M440.3,31.2h1.9c0.1,0.7,0.4,1.1,1.3,1.1c0.8,0,1.2-0.3,1.2-0.8c0-0.5-0.4-0.7-1.5-0.9c-2-0.3-2.7-0.9-2.7-2.3
			c0-1.5,1.4-2.3,2.9-2.3c1.6,0,2.9,0.6,3.1,2.3h-1.9c-0.1-0.6-0.5-0.9-1.2-0.9c-0.7,0-1.1,0.3-1.1,0.8c0,0.5,0.4,0.7,1.4,0.8
			c1.9,0.3,2.9,0.7,2.9,2.3c0,1.6-1.2,2.4-3.1,2.4C441.6,33.7,440.4,32.8,440.3,31.2z"></path>
		<path d="M447.5,29.9v-0.1c0-2.3,1.7-3.9,3.8-3.9c1.9,0,3.6,1.1,3.6,3.8v0.6h-5.4c0.1,1.2,0.7,1.9,1.8,1.9c1,0,1.4-0.4,1.5-1h1.9
			c-0.2,1.6-1.5,2.5-3.6,2.5C449.2,33.7,447.5,32.3,447.5,29.9z M453,29c-0.1-1.1-0.6-1.7-1.6-1.7c-0.9,0-1.5,0.6-1.7,1.7H453z"></path>
	</g>
</g>
</svg>
