<svg xmlns="http://www.w3.org/2000/svg" fill="none" viewBox="0 0 1206 330" height="330" width="1206">
<path fill="#F0F0F1" d="M982.967 43.8752H841.043V80.3109H982.967V43.8752Z"></path>
<path fill="#81868A" d="M982.495 44.3375V79.8579H841.505V44.3375H982.505M983.429 43.413H840.58V80.7824H983.429V43.413Z"></path>
<path fill="#172239" d="M898.271 62.8558V62.7726C898.271 60.6185 899.75 59.1207 901.738 59.1207C903.374 59.1207 904.65 59.9436 904.807 61.617H903.458C903.31 60.6647 902.773 60.1747 901.747 60.1747C900.49 60.1747 899.667 61.1547 899.667 62.7541V62.8373C899.667 64.446 900.434 65.3983 901.756 65.3983C902.746 65.3983 903.448 64.899 903.587 63.8913H904.891C904.678 65.6109 903.458 66.48 901.756 66.48C899.519 66.48 898.262 65.047 898.262 62.8466L898.271 62.8558Z"></path>
<path fill="#172239" d="M905.963 58.7323H907.174V66.3874H905.963V58.7323Z"></path>
<path fill="#172239" d="M908.542 59.6014C908.542 59.2039 908.866 58.8988 909.264 58.8988C909.661 58.8988 909.985 59.1947 909.985 59.6014C909.985 60.0082 909.661 60.2948 909.264 60.2948C908.866 60.2948 908.542 59.999 908.542 59.6014ZM908.672 61.1547H909.883V66.3875H908.672V61.1547Z"></path>
<path fill="#172239" d="M911.002 63.8265V63.7433C911.002 62.1254 912.111 61.0437 913.6 61.0437C914.903 61.0437 916.068 61.8111 916.068 63.6879V64.0392H912.241C912.278 65.0284 912.777 65.5924 913.683 65.5924C914.413 65.5924 914.792 65.3058 914.885 64.788H916.059C915.892 65.8882 914.996 66.4892 913.655 66.4892C912.111 66.4892 911.002 65.4814 911.002 63.8265ZM914.875 63.2256C914.82 62.3288 914.358 61.922 913.609 61.922C912.86 61.922 912.388 62.412 912.268 63.2256H914.875Z"></path>
<path fill="#172239" d="M917.15 61.1546H918.361V61.9867C918.61 61.4782 919.193 61.0437 920.053 61.0437C921.107 61.0437 921.846 61.6539 921.846 63.0962V66.3875H920.635V63.2071C920.635 62.4212 920.312 62.0607 919.59 62.0607C918.906 62.0607 918.361 62.4767 918.361 63.3088V66.3875H917.15V61.1546Z"></path>
<path fill="#172239" d="M923.427 64.9268V62.07H922.725V61.164H923.427V60.0176H924.639V61.164H925.785V62.07H924.639V64.8159C924.639 65.2781 924.861 65.4908 925.24 65.4908C925.48 65.4908 925.656 65.463 925.831 65.3891V66.3506C925.637 66.4246 925.378 66.48 925.008 66.48C923.973 66.48 923.427 65.9161 923.427 64.9268Z"></path>
<path fill="#81868A" d="M912.462 93.1619H911.538V105.717H912.462V93.1619Z"></path>
<path fill="#81868A" d="M907.849 94.3822L912 87.1986L916.151 94.3822H907.849Z"></path>
<path fill="#81868A" d="M907.849 104.506L912 111.699L916.151 104.506H907.849Z"></path>
<path fill="#F0F0F1" d="M1166.25 118.762H657.755V155.198H1166.25V118.762Z"></path>
<path fill="#81868A" d="M1165.78 119.224V154.735H658.217V119.224H1165.78ZM1166.71 118.3H657.293V155.66H1166.71V118.3Z"></path>
<path fill="#172239" d="M878.671 134.118H880.409L882.766 141.274H881.389L880.816 139.499H878.088L877.524 141.274H876.276L878.671 134.118ZM878.403 138.528H880.51L879.457 135.209L878.393 138.528H878.403Z"></path>
<path fill="#172239" d="M883.857 134.118H886.159C887.759 134.118 888.813 134.83 888.813 136.328V136.365C888.813 137.872 887.722 138.547 886.196 138.547H885.198V141.265H883.866V134.109L883.857 134.118ZM886.159 137.585C887.038 137.585 887.509 137.151 887.509 136.365V136.328C887.509 135.477 887.01 135.145 886.159 135.145H885.189V137.585H886.159Z"></path>
<path fill="#172239" d="M889.978 134.119H891.318V141.274H889.978V134.119Z"></path>
<path fill="#172239" d="M895.026 137.743V137.659C895.026 135.533 896.505 134.007 898.594 134.007C900.129 134.007 901.488 134.71 901.673 136.42H900.342C900.185 135.468 899.537 135.061 898.613 135.061C897.217 135.061 896.403 136.097 896.403 137.669V137.752C896.403 139.287 897.115 140.331 898.613 140.331C899.953 140.331 900.499 139.518 900.545 138.528H898.742V137.53H901.858V138.186C901.858 140.165 900.619 141.367 898.594 141.367C896.301 141.367 895.026 139.85 895.026 137.733V137.743Z"></path>
<path fill="#172239" d="M902.653 139.823C902.653 138.602 903.836 138.159 905.334 138.159H905.981V137.89C905.981 137.188 905.741 136.836 905.029 136.836C904.4 136.836 904.086 137.132 904.031 137.659H902.856C902.958 136.439 903.929 135.93 905.094 135.93C906.259 135.93 907.183 136.411 907.183 137.844V141.274H905.991V140.636C905.649 141.089 905.186 141.376 904.391 141.376C903.43 141.376 902.644 140.914 902.644 139.823H902.653ZM905.981 139.444V138.926H905.362C904.437 138.926 903.855 139.139 903.855 139.776C903.855 140.22 904.095 140.507 904.696 140.507C905.436 140.507 905.991 140.119 905.991 139.444H905.981Z"></path>
<path fill="#172239" d="M908.782 139.813V136.957H908.08V136.051H908.782V134.904H909.994V136.051H911.14V136.957H909.994V139.702C909.994 140.165 910.215 140.377 910.595 140.377C910.835 140.377 911.011 140.35 911.186 140.276V141.237C910.992 141.311 910.733 141.367 910.363 141.367C909.328 141.367 908.782 140.803 908.782 139.813Z"></path>
<path fill="#172239" d="M911.917 138.713V138.63C911.917 137.012 913.026 135.93 914.515 135.93C915.818 135.93 916.983 136.698 916.983 138.575V138.926H913.156C913.193 139.915 913.692 140.479 914.598 140.479C915.328 140.479 915.707 140.192 915.8 139.675H916.974C916.808 140.775 915.911 141.376 914.57 141.376C913.026 141.376 911.917 140.368 911.917 138.713ZM915.791 138.112C915.735 137.216 915.273 136.809 914.524 136.809C913.775 136.809 913.304 137.299 913.183 138.112H915.791Z"></path>
<path fill="#172239" d="M917.446 136.041H918.74L919.775 139.823L920.885 136.041H921.893L922.909 139.823L924 136.041H925.184L923.547 141.274H922.318L921.347 137.752L920.284 141.274H919.045L917.446 136.041Z"></path>
<path fill="#172239" d="M925.572 139.823C925.572 138.602 926.755 138.159 928.253 138.159H928.9V137.89C928.9 137.188 928.66 136.836 927.948 136.836C927.319 136.836 927.005 137.132 926.95 137.659H925.775C925.877 136.439 926.848 135.93 928.013 135.93C929.178 135.93 930.102 136.411 930.102 137.844V141.274H928.91V140.636C928.567 141.089 928.105 141.376 927.31 141.376C926.349 141.376 925.563 140.914 925.563 139.823H925.572ZM928.9 139.444V138.926H928.281C927.356 138.926 926.774 139.139 926.774 139.776C926.774 140.22 927.014 140.507 927.615 140.507C928.355 140.507 928.91 140.119 928.91 139.444H928.9Z"></path>
<path fill="#172239" d="M932.885 140.738L930.814 136.041H932.127L933.514 139.416L934.79 136.041H935.973L933.126 143.059H931.933L932.885 140.738Z"></path>
<path fill="#81868A" d="M912.462 155.614H911.538V174.141H912.462V155.614Z"></path>
<path fill="#81868A" d="M907.849 172.921L912 180.114L916.151 172.921H907.849Z"></path>
<path fill="#81868A" d="M912.462 228.651H911.538V247.179H912.462V228.651Z"></path>
<path fill="#81868A" d="M907.849 245.958L912 253.151L916.151 245.958H907.849Z"></path>
<path fill="#81868A" d="M1085.35 155.614H1084.42V174.141H1085.35V155.614Z"></path>
<path fill="#81868A" d="M1080.74 172.921L1084.89 180.114L1089.04 172.921H1080.74Z"></path>
<path fill="#81868A" d="M1085.35 228.651H1084.42V247.179H1085.35V228.651Z"></path>
<path fill="#81868A" d="M1080.74 245.958L1084.89 253.151L1089.04 245.958H1080.74Z"></path>
<path fill="#81868A" d="M739.575 155.614H738.651V174.141H739.575V155.614Z"></path>
<path fill="#81868A" d="M734.962 172.921L739.113 180.114L743.264 172.921H734.962Z"></path>
<path fill="#81868A" d="M739.575 228.651H738.651V247.179H739.575V228.651Z"></path>
<path fill="#81868A" d="M734.962 245.958L739.113 253.151L743.264 245.958H734.962Z"></path>
<path fill="#A6A4A4" d="M739.298 255.49C731.255 255.49 723.119 256.988 723.119 259.854V283.485C723.119 286.351 731.255 287.849 739.298 287.849C747.342 287.849 755.478 286.351 755.478 283.485V259.854C755.478 256.988 747.342 255.49 739.298 255.49ZM739.298 256.517C748.692 256.517 754.451 258.458 754.451 259.854C754.451 261.25 748.682 263.192 739.298 263.192C729.914 263.192 724.145 261.25 724.145 259.854C724.145 258.458 729.914 256.517 739.298 256.517ZM739.298 286.823C729.914 286.823 724.145 284.881 724.145 283.485V277.245C726.577 279.038 732.965 279.972 739.298 279.972C745.631 279.972 752.02 279.038 754.451 277.245V283.485C754.451 284.881 748.682 286.823 739.298 286.823ZM739.298 278.946C729.914 278.946 724.145 277.004 724.145 275.608V269.368C726.577 271.161 732.965 272.095 739.298 272.095C745.631 272.095 752.02 271.161 754.451 269.368V275.608C754.451 277.004 748.682 278.946 739.298 278.946ZM739.298 271.069C729.914 271.069 724.145 269.127 724.145 267.731V261.491C726.577 263.284 732.965 264.218 739.298 264.218C745.631 264.218 752.02 263.284 754.451 261.491V267.731C754.451 269.127 748.682 271.069 739.298 271.069Z"></path>
<path fill="#A6A4A4" d="M749.884 265.577C749.385 265.577 748.969 265.984 748.969 266.493C748.969 267.001 749.376 267.408 749.884 267.408C750.393 267.408 750.8 267.001 750.8 266.493C750.8 265.984 750.393 265.577 749.884 265.577Z"></path>
<path fill="#A6A4A4" d="M749.884 273.454C749.385 273.454 748.969 273.861 748.969 274.369C748.969 274.878 749.376 275.285 749.884 275.285C750.393 275.285 750.8 274.878 750.8 274.369C750.8 273.861 750.393 273.454 749.884 273.454Z"></path>
<path fill="#A6A4A4" d="M749.884 281.331C749.385 281.331 748.969 281.738 748.969 282.247C748.969 282.755 749.376 283.162 749.884 283.162C750.393 283.162 750.8 282.755 750.8 282.247C750.8 281.738 750.393 281.331 749.884 281.331Z"></path>
<path fill="#F0F0F1" d="M809.71 191.8H667.786V228.235H809.71V191.8Z"></path>
<path fill="#81868A" d="M809.248 192.262V227.773H668.248V192.262H809.248ZM810.173 191.338H667.324V228.698H810.173V191.338Z"></path>
<path fill="#172239" d="M705.331 207.156H707.115L708.992 212.038L710.832 207.156H712.589V214.312H711.257V208.913L709.131 214.312H708.706L706.533 208.913V214.312H705.331V207.156Z"></path>
<path fill="#172239" d="M714.031 207.526C714.031 207.128 714.354 206.823 714.752 206.823C715.149 206.823 715.473 207.119 715.473 207.526C715.473 207.933 715.149 208.219 714.752 208.219C714.354 208.219 714.031 207.924 714.031 207.526ZM714.16 209.079H715.371V214.312H714.16V209.079Z"></path>
<path fill="#172239" d="M716.49 211.76V211.677C716.49 210.013 717.674 208.968 719.134 208.968C720.29 208.968 721.381 209.486 721.529 210.928H720.355C720.253 210.226 719.791 209.939 719.153 209.939C718.321 209.939 717.729 210.577 717.729 211.659V211.742C717.729 212.879 718.293 213.48 719.181 213.48C719.819 213.48 720.373 213.101 720.438 212.361H721.547C721.455 213.563 720.549 214.414 719.125 214.414C717.627 214.414 716.481 213.434 716.481 211.76H716.49Z"></path>
<path fill="#172239" d="M722.583 209.079H723.794V210.059C724.127 209.403 724.617 209.005 725.495 208.996V210.124C724.432 210.133 723.794 210.475 723.794 211.585V214.303H722.583V209.07V209.079Z"></path>
<path fill="#172239" d="M726.105 211.751V211.668C726.105 210.05 727.251 208.968 728.795 208.968C730.339 208.968 731.476 210.041 731.476 211.64V211.723C731.476 213.35 730.33 214.414 728.786 214.414C727.242 214.414 726.105 213.341 726.105 211.751ZM730.238 211.732V211.659C730.238 210.577 729.701 209.92 728.795 209.92C727.889 209.92 727.344 210.568 727.344 211.649V211.732C727.344 212.805 727.871 213.471 728.795 213.471C729.72 213.471 730.238 212.796 730.238 211.732Z"></path>
<path fill="#172239" d="M732.161 212.676H733.298C733.363 213.203 733.631 213.517 734.334 213.517C734.981 213.517 735.277 213.286 735.277 212.842C735.277 212.398 734.925 212.25 734.158 212.121C732.78 211.899 732.272 211.511 732.272 210.531C732.272 209.477 733.252 208.959 734.232 208.959C735.304 208.959 736.155 209.357 736.284 210.54H735.166C735.064 210.059 734.796 209.837 734.232 209.837C733.714 209.837 733.4 210.087 733.4 210.457C733.4 210.827 733.649 210.984 734.481 211.122C735.711 211.317 736.441 211.612 736.441 212.722C736.441 213.831 735.693 214.395 734.352 214.395C733.011 214.395 732.216 213.776 732.161 212.666V212.676Z"></path>
<path fill="#172239" d="M737.144 211.751V211.668C737.144 210.05 738.253 208.968 739.742 208.968C741.046 208.968 742.21 209.735 742.21 211.612V211.964H738.383C738.42 212.953 738.919 213.517 739.825 213.517C740.556 213.517 740.935 213.23 741.027 212.712H742.201C742.035 213.813 741.138 214.414 739.797 214.414C738.253 214.414 737.144 213.406 737.144 211.751ZM741.018 211.15C740.962 210.253 740.5 209.846 739.751 209.846C739.002 209.846 738.531 210.336 738.411 211.15H741.018Z"></path>
<path fill="#172239" d="M743.292 209.079H744.503V210.059C744.836 209.403 745.326 209.005 746.204 208.996V210.124C745.141 210.133 744.503 210.475 744.503 211.585V214.303H743.292V209.07V209.079Z"></path>
<path fill="#172239" d="M746.769 209.079H748.072L749.44 213.073L750.79 209.079H751.983L750.097 214.312H748.682L746.769 209.079Z"></path>
<path fill="#172239" d="M752.778 207.526C752.778 207.128 753.101 206.823 753.499 206.823C753.897 206.823 754.22 207.119 754.22 207.526C754.22 207.933 753.897 208.219 753.499 208.219C753.101 208.219 752.778 207.924 752.778 207.526ZM752.907 209.079H754.118V214.312H752.907V209.079Z"></path>
<path fill="#172239" d="M755.237 211.76V211.677C755.237 210.013 756.42 208.968 757.881 208.968C759.037 208.968 760.128 209.486 760.276 210.928H759.102C759 210.226 758.538 209.939 757.9 209.939C757.068 209.939 756.476 210.577 756.476 211.659V211.742C756.476 212.879 757.04 213.48 757.927 213.48C758.565 213.48 759.12 213.101 759.185 212.361H760.294C760.202 213.563 759.296 214.414 757.872 214.414C756.374 214.414 755.228 213.434 755.228 211.76H755.237Z"></path>
<path fill="#172239" d="M760.978 211.751V211.668C760.978 210.05 762.088 208.968 763.576 208.968C764.88 208.968 766.045 209.735 766.045 211.612V211.964H762.217C762.254 212.953 762.753 213.517 763.659 213.517C764.39 213.517 764.769 213.23 764.861 212.712H766.035C765.869 213.813 764.972 214.414 763.632 214.414C762.088 214.414 760.978 213.406 760.978 211.751ZM764.852 211.15C764.797 210.253 764.334 209.846 763.585 209.846C762.837 209.846 762.365 210.336 762.245 211.15H764.852Z"></path>
<path fill="#172239" d="M770.621 208.478L769.114 209.505V208.33L770.778 207.147H771.971V214.303H770.63V208.469L770.621 208.478Z"></path>
<path fill="#A6A4A4" d="M1085.07 255.49C1077.03 255.49 1068.89 256.988 1068.89 259.854V283.485C1068.89 286.351 1077.03 287.849 1085.07 287.849C1093.11 287.849 1101.25 286.351 1101.25 283.485V259.854C1101.25 256.988 1093.11 255.49 1085.07 255.49ZM1085.07 256.517C1094.46 256.517 1100.22 258.458 1100.22 259.854C1100.22 261.25 1094.46 263.192 1085.07 263.192C1075.69 263.192 1069.92 261.25 1069.92 259.854C1069.92 258.458 1075.69 256.517 1085.07 256.517ZM1085.07 286.823C1075.69 286.823 1069.92 284.881 1069.92 283.485V277.245C1072.35 279.038 1078.74 279.972 1085.07 279.972C1091.4 279.972 1097.79 279.038 1100.22 277.245V283.485C1100.22 284.881 1094.46 286.823 1085.07 286.823ZM1085.07 278.946C1075.69 278.946 1069.92 277.004 1069.92 275.608V269.368C1072.35 271.161 1078.74 272.095 1085.07 272.095C1091.4 272.095 1097.79 271.161 1100.22 269.368V275.608C1100.22 277.004 1094.46 278.946 1085.07 278.946ZM1085.07 271.069C1075.69 271.069 1069.92 269.127 1069.92 267.731V261.491C1072.35 263.284 1078.74 264.218 1085.07 264.218C1091.4 264.218 1097.79 263.284 1100.22 261.491V267.731C1100.22 269.127 1094.46 271.069 1085.07 271.069Z"></path>
<path fill="#A6A4A4" d="M1095.66 265.577C1095.16 265.577 1094.74 265.984 1094.74 266.493C1094.74 267.001 1095.15 267.408 1095.66 267.408C1096.17 267.408 1096.57 267.001 1096.57 266.493C1096.57 265.984 1096.17 265.577 1095.66 265.577Z"></path>
<path fill="#A6A4A4" d="M1095.66 273.454C1095.16 273.454 1094.74 273.861 1094.74 274.369C1094.74 274.878 1095.15 275.285 1095.66 275.285C1096.17 275.285 1096.57 274.878 1096.57 274.369C1096.57 273.861 1096.17 273.454 1095.66 273.454Z"></path>
<path fill="#A6A4A4" d="M1095.66 281.331C1095.16 281.331 1094.74 281.738 1094.74 282.247C1094.74 282.755 1095.15 283.162 1095.66 283.162C1096.17 283.162 1096.57 282.755 1096.57 282.247C1096.57 281.738 1096.17 281.331 1095.66 281.331Z"></path>
<path fill="#F0F0F1" d="M1155.48 191.8H1013.56V228.235H1155.48V191.8Z"></path>
<path fill="#81868A" d="M1155.02 192.262V227.773H1014.02V192.262H1155.02ZM1155.95 191.338H1013.1V228.698H1155.95V191.338Z"></path>
<path fill="#172239" d="M1050.09 207.156H1051.87L1053.75 212.038L1055.59 207.156H1057.35V214.312H1056.01V208.913L1053.89 214.312H1053.45L1051.28 208.913V214.312H1050.08V207.156H1050.09Z"></path>
<path fill="#172239" d="M1058.78 207.526C1058.78 207.128 1059.1 206.823 1059.5 206.823C1059.9 206.823 1060.22 207.119 1060.22 207.526C1060.22 207.933 1059.9 208.219 1059.5 208.219C1059.1 208.219 1058.78 207.924 1058.78 207.526ZM1058.91 209.079H1060.12V214.312H1058.91V209.079Z"></path>
<path fill="#172239" d="M1061.24 211.76V211.677C1061.24 210.013 1062.42 208.968 1063.88 208.968C1065.04 208.968 1066.13 209.486 1066.27 210.928H1065.09C1064.99 210.226 1064.53 209.939 1063.89 209.939C1063.06 209.939 1062.47 210.577 1062.47 211.659V211.742C1062.47 212.879 1063.03 213.48 1063.92 213.48C1064.56 213.48 1065.11 213.101 1065.18 212.361H1066.29C1066.19 213.563 1065.29 214.414 1063.86 214.414C1062.37 214.414 1061.22 213.434 1061.22 211.76H1061.24Z"></path>
<path fill="#172239" d="M1067.34 209.079H1068.55V210.059C1068.88 209.403 1069.37 209.005 1070.25 208.996V210.124C1069.19 210.133 1068.55 210.475 1068.55 211.585V214.303H1067.34V209.07V209.079Z"></path>
<path fill="#172239" d="M1070.85 211.751V211.668C1070.85 210.05 1072 208.968 1073.54 208.968C1075.09 208.968 1076.22 210.041 1076.22 211.64V211.723C1076.22 213.35 1075.08 214.414 1073.53 214.414C1071.99 214.414 1070.85 213.341 1070.85 211.751ZM1074.99 211.732V211.659C1074.99 210.577 1074.45 209.92 1073.54 209.92C1072.64 209.92 1072.09 210.568 1072.09 211.649V211.732C1072.09 212.805 1072.62 213.471 1073.54 213.471C1074.47 213.471 1074.99 212.796 1074.99 211.732Z"></path>
<path fill="#172239" d="M1076.91 212.676H1078.05C1078.1 213.203 1078.38 213.517 1079.08 213.517C1079.73 213.517 1080.02 213.286 1080.02 212.842C1080.02 212.398 1079.67 212.25 1078.91 212.121C1077.53 211.899 1077.02 211.511 1077.02 210.531C1077.02 209.477 1078 208.959 1078.98 208.959C1080.05 208.959 1080.9 209.357 1081.03 210.54H1079.91C1079.81 210.059 1079.54 209.837 1078.98 209.837C1078.46 209.837 1078.15 210.087 1078.15 210.457C1078.15 210.827 1078.4 210.984 1079.23 211.122C1080.46 211.317 1081.19 211.612 1081.19 212.722C1081.19 213.831 1080.44 214.395 1079.1 214.395C1077.76 214.395 1076.95 213.776 1076.91 212.666V212.676Z"></path>
<path fill="#172239" d="M1081.9 211.751V211.668C1081.9 210.05 1083.01 208.968 1084.5 208.968C1085.8 208.968 1086.97 209.735 1086.97 211.612V211.964H1083.14C1083.18 212.953 1083.68 213.517 1084.58 213.517C1085.31 213.517 1085.69 213.23 1085.78 212.712H1086.96C1086.79 213.813 1085.89 214.414 1084.55 214.414C1083.01 214.414 1081.9 213.406 1081.9 211.751ZM1085.77 211.15C1085.71 210.253 1085.26 209.846 1084.51 209.846C1083.76 209.846 1083.29 210.336 1083.17 211.15H1085.77Z"></path>
<path fill="#172239" d="M1088.05 209.079H1089.26V210.059C1089.59 209.403 1090.08 209.005 1090.96 208.996V210.124C1089.9 210.133 1089.26 210.475 1089.26 211.585V214.303H1088.05V209.07V209.079Z"></path>
<path fill="#172239" d="M1091.53 209.079H1092.83L1094.2 213.073L1095.55 209.079H1096.74L1094.85 214.312H1093.44L1091.53 209.079Z"></path>
<path fill="#172239" d="M1097.53 207.526C1097.53 207.128 1097.86 206.823 1098.26 206.823C1098.65 206.823 1098.98 207.119 1098.98 207.526C1098.98 207.933 1098.65 208.219 1098.26 208.219C1097.86 208.219 1097.53 207.924 1097.53 207.526ZM1097.66 209.079H1098.88V214.312H1097.66V209.079Z"></path>
<path fill="#172239" d="M1099.98 211.76V211.677C1099.98 210.013 1101.17 208.968 1102.63 208.968C1103.78 208.968 1104.88 209.486 1105.01 210.928H1103.84C1103.74 210.226 1103.28 209.939 1102.64 209.939C1101.81 209.939 1101.21 210.577 1101.21 211.659V211.742C1101.21 212.879 1101.78 213.48 1102.67 213.48C1103.3 213.48 1103.86 213.101 1103.92 212.361H1105.03C1104.94 213.563 1104.03 214.414 1102.61 214.414C1101.11 214.414 1099.97 213.434 1099.97 211.76H1099.98Z"></path>
<path fill="#172239" d="M1105.73 211.751V211.668C1105.73 210.05 1106.84 208.968 1108.33 208.968C1109.64 208.968 1110.8 209.735 1110.8 211.612V211.964H1106.97C1107.01 212.953 1107.51 213.517 1108.42 213.517C1109.15 213.517 1109.53 213.23 1109.62 212.712H1110.79C1110.63 213.813 1109.73 214.414 1108.39 214.414C1106.84 214.414 1105.73 213.406 1105.73 211.751ZM1109.61 211.15C1109.54 210.253 1109.09 209.846 1108.34 209.846C1107.59 209.846 1107.12 210.336 1107 211.15H1109.61Z"></path>
<path fill="#172239" d="M1113.89 212.102H1115.1C1115.17 212.851 1115.59 213.415 1116.55 213.415C1117.51 213.415 1117.91 212.962 1117.91 212.26C1117.91 211.483 1117.5 211.085 1116.62 211.085H1116.07V210.133H1116.58C1117.4 210.133 1117.77 209.754 1117.77 209.079C1117.77 208.497 1117.4 208.071 1116.66 208.071C1115.92 208.071 1115.41 208.534 1115.33 209.255H1114.15C1114.22 208.016 1115.15 207.064 1116.68 207.064C1118.22 207.064 1119.04 207.924 1119.04 208.987C1119.04 209.8 1118.57 210.29 1117.88 210.549C1118.72 210.743 1119.26 211.326 1119.26 212.278C1119.26 213.6 1118.23 214.423 1116.58 214.423C1114.93 214.423 1113.95 213.48 1113.89 212.112V212.102Z"></path>
<path fill="#A6A4A4" d="M912.185 255.49C904.141 255.49 896.006 256.988 896.006 259.854V283.485C896.006 286.351 904.141 287.849 912.185 287.849C920.228 287.849 928.364 286.351 928.364 283.485V259.854C928.364 256.988 920.228 255.49 912.185 255.49ZM912.185 256.517C921.578 256.517 927.338 258.458 927.338 259.854C927.338 261.25 921.569 263.192 912.185 263.192C902.801 263.192 897.032 261.25 897.032 259.854C897.032 258.458 902.801 256.517 912.185 256.517ZM912.185 286.823C902.801 286.823 897.032 284.881 897.032 283.485V277.245C899.463 279.038 905.852 279.972 912.185 279.972C918.518 279.972 924.906 279.038 927.338 277.245V283.485C927.338 284.881 921.569 286.823 912.185 286.823ZM912.185 278.946C902.801 278.946 897.032 277.004 897.032 275.608V269.368C899.463 271.161 905.852 272.095 912.185 272.095C918.518 272.095 924.906 271.161 927.338 269.368V275.608C927.338 277.004 921.569 278.946 912.185 278.946ZM912.185 271.069C902.801 271.069 897.032 269.127 897.032 267.731V261.491C899.463 263.284 905.852 264.218 912.185 264.218C918.518 264.218 924.906 263.284 927.338 261.491V267.731C927.338 269.127 921.569 271.069 912.185 271.069Z"></path>
<path fill="#A6A4A4" d="M922.771 265.577C922.272 265.577 921.855 265.984 921.855 266.493C921.855 267.001 922.262 267.408 922.771 267.408C923.28 267.408 923.686 267.001 923.686 266.493C923.686 265.984 923.28 265.577 922.771 265.577Z"></path>
<path fill="#A6A4A4" d="M922.771 273.454C922.272 273.454 921.855 273.861 921.855 274.369C921.855 274.878 922.262 275.285 922.771 275.285C923.28 275.285 923.686 274.878 923.686 274.369C923.686 273.861 923.28 273.454 922.771 273.454Z"></path>
<path fill="#A6A4A4" d="M922.771 281.331C922.272 281.331 921.855 281.738 921.855 282.247C921.855 282.755 922.262 283.162 922.771 283.162C923.28 283.162 923.686 282.755 923.686 282.247C923.686 281.738 923.28 281.331 922.771 281.331Z"></path>
<path fill="#F0F0F1" d="M982.597 191.8H840.673V228.235H982.597V191.8Z"></path>
<path fill="#81868A" d="M982.135 192.262V227.773H841.135V192.262H982.135ZM983.06 191.338H840.211V228.698H983.06V191.338Z"></path>
<path fill="#172239" d="M877.423 207.156H879.207L881.084 212.038L882.924 207.156H884.68V214.312H883.349V208.913L881.223 214.312H880.788L878.615 208.913V214.312H877.414V207.156H877.423Z"></path>
<path fill="#172239" d="M886.123 207.526C886.123 207.128 886.446 206.823 886.844 206.823C887.241 206.823 887.565 207.119 887.565 207.526C887.565 207.933 887.241 208.219 886.844 208.219C886.446 208.219 886.123 207.924 886.123 207.526ZM886.252 209.079H887.463V214.312H886.252V209.079Z"></path>
<path fill="#172239" d="M888.582 211.76V211.677C888.582 210.013 889.765 208.968 891.226 208.968C892.382 208.968 893.473 209.486 893.611 210.928H892.437C892.336 210.226 891.873 209.939 891.235 209.939C890.403 209.939 889.812 210.577 889.812 211.659V211.742C889.812 212.879 890.376 213.48 891.263 213.48C891.901 213.48 892.456 213.101 892.52 212.361H893.63C893.537 213.563 892.631 214.414 891.208 214.414C889.71 214.414 888.563 213.434 888.563 211.76H888.582Z"></path>
<path fill="#172239" d="M894.674 209.079H895.885V210.059C896.218 209.403 896.708 209.005 897.587 208.996V210.124C896.523 210.133 895.885 210.475 895.885 211.585V214.303H894.674V209.07V209.079Z"></path>
<path fill="#172239" d="M898.197 211.751V211.668C898.197 210.05 899.343 208.968 900.887 208.968C902.431 208.968 903.568 210.041 903.568 211.64V211.723C903.568 213.35 902.422 214.414 900.878 214.414C899.334 214.414 898.197 213.341 898.197 211.751ZM902.329 211.732V211.659C902.329 210.577 901.793 209.92 900.887 209.92C899.981 209.92 899.436 210.568 899.436 211.649V211.732C899.436 212.805 899.963 213.471 900.887 213.471C901.812 213.471 902.329 212.796 902.329 211.732Z"></path>
<path fill="#172239" d="M904.253 212.676H905.39C905.445 213.203 905.723 213.517 906.425 213.517C907.073 213.517 907.368 213.286 907.368 212.842C907.368 212.398 907.017 212.25 906.25 212.121C904.872 211.899 904.364 211.511 904.364 210.531C904.364 209.477 905.344 208.959 906.324 208.959C907.396 208.959 908.247 209.357 908.376 210.54H907.257C907.156 210.059 906.888 209.837 906.324 209.837C905.806 209.837 905.492 210.087 905.492 210.457C905.492 210.827 905.741 210.984 906.573 211.122C907.803 211.317 908.533 211.612 908.533 212.722C908.533 213.831 907.784 214.395 906.444 214.395C905.103 214.395 904.299 213.776 904.253 212.666V212.676Z"></path>
<path fill="#172239" d="M909.236 211.751V211.668C909.236 210.05 910.345 208.968 911.834 208.968C913.137 208.968 914.302 209.735 914.302 211.612V211.964H910.475C910.512 212.953 911.011 213.517 911.917 213.517C912.647 213.517 913.026 213.23 913.119 212.712H914.293C914.127 213.813 913.23 214.414 911.889 214.414C910.345 214.414 909.236 213.406 909.236 211.751ZM913.11 211.15C913.045 210.253 912.592 209.846 911.843 209.846C911.094 209.846 910.623 210.336 910.502 211.15H913.11Z"></path>
<path fill="#172239" d="M915.384 209.079H916.595V210.059C916.928 209.403 917.418 209.005 918.296 208.996V210.124C917.233 210.133 916.595 210.475 916.595 211.585V214.303H915.384V209.07V209.079Z"></path>
<path fill="#172239" d="M918.86 209.079H920.164L921.532 213.073L922.882 209.079H924.075L922.189 214.312H920.774L918.86 209.079Z"></path>
<path fill="#172239" d="M924.87 207.526C924.87 207.128 925.193 206.823 925.591 206.823C925.988 206.823 926.312 207.119 926.312 207.526C926.312 207.933 925.988 208.219 925.591 208.219C925.193 208.219 924.87 207.924 924.87 207.526ZM924.999 209.079H926.21V214.312H924.999V209.079Z"></path>
<path fill="#172239" d="M927.329 211.76V211.677C927.329 210.013 928.512 208.968 929.973 208.968C931.129 208.968 932.22 209.486 932.358 210.928H931.184C931.082 210.226 930.62 209.939 929.982 209.939C929.15 209.939 928.558 210.577 928.558 211.659V211.742C928.558 212.879 929.122 213.48 930.01 213.48C930.648 213.48 931.203 213.101 931.267 212.361H932.377C932.284 213.563 931.378 214.414 929.954 214.414C928.457 214.414 927.31 213.434 927.31 211.76H927.329Z"></path>
<path fill="#172239" d="M933.07 211.751V211.668C933.07 210.05 934.18 208.968 935.668 208.968C936.972 208.968 938.137 209.735 938.137 211.612V211.964H934.309C934.346 212.953 934.845 213.517 935.751 213.517C936.482 213.517 936.861 213.23 936.953 212.712H938.127C937.961 213.813 937.064 214.414 935.724 214.414C934.18 214.414 933.07 213.406 933.07 211.751ZM936.944 211.15C936.879 210.253 936.426 209.846 935.677 209.846C934.929 209.846 934.457 210.336 934.337 211.15H936.944Z"></path>
<path fill="#172239" d="M941.031 214.072L943.73 211.224C944.414 210.503 944.821 209.874 944.821 209.19C944.821 208.506 944.442 208.099 943.749 208.099C943.055 208.099 942.593 208.506 942.473 209.523H941.252C941.345 207.961 942.279 207.064 943.795 207.064C945.311 207.064 946.152 207.914 946.152 209.172C946.152 210.105 945.607 210.91 944.756 211.733L943.166 213.286H946.208V214.312H941.04V214.072H941.031Z"></path>
<path fill="#F0F0F1" d="M299.26 8.10999H145.75V47.52H299.26V8.10999Z"></path>
<path fill="#81868A" d="M298.75 8.60999V47.03H146.25V8.60999H298.76M299.76 7.60999H145.25V48.03H299.76V7.60999Z"></path>
<path fill="#172239" d="M207.65 28.64V28.55C207.65 26.22 209.25 24.6 211.4 24.6C213.17 24.6 214.55 25.49 214.72 27.3H213.26C213.1 26.27 212.52 25.74 211.41 25.74C210.05 25.74 209.16 26.8 209.16 28.53V28.62C209.16 30.36 209.99 31.39 211.42 31.39C212.49 31.39 213.25 30.85 213.4 29.76H214.81C214.58 31.62 213.26 32.56 211.42 32.56C209 32.56 207.64 31.01 207.64 28.63L207.65 28.64Z"></path>
<path fill="#172239" d="M215.97 24.1799H217.28V32.4599H215.97V24.1799Z"></path>
<path fill="#172239" d="M218.76 25.12C218.76 24.69 219.11 24.36 219.54 24.36C219.97 24.36 220.32 24.68 220.32 25.12C220.32 25.56 219.97 25.87 219.54 25.87C219.11 25.87 218.76 25.55 218.76 25.12ZM218.9 26.8H220.21V32.46H218.9V26.8Z"></path>
<path fill="#172239" d="M221.42 29.6899V29.5999C221.42 27.8499 222.62 26.6799 224.23 26.6799C225.64 26.6799 226.9 27.5099 226.9 29.5399V29.9199H222.76C222.8 30.9899 223.34 31.5999 224.32 31.5999C225.11 31.5999 225.52 31.2899 225.62 30.7299H226.89C226.71 31.9199 225.74 32.5699 224.29 32.5699C222.62 32.5699 221.42 31.4799 221.42 29.6899ZM225.61 29.0399C225.55 28.0699 225.05 27.6299 224.24 27.6299C223.43 27.6299 222.92 28.1599 222.79 29.0399H225.61Z"></path>
<path fill="#172239" d="M228.07 26.7999H229.38V27.6999C229.65 27.1499 230.28 26.6799 231.21 26.6799C232.35 26.6799 233.15 27.3399 233.15 28.8999V32.4599H231.84V29.0199C231.84 28.1699 231.49 27.7799 230.71 27.7799C229.97 27.7799 229.38 28.2299 229.38 29.1299V32.4599H228.07V26.7999Z"></path>
<path fill="#172239" d="M234.86 30.8799V27.7899H234.1V26.8099H234.86V25.5699H236.17V26.8099H237.41V27.7899H236.17V30.7599C236.17 31.2599 236.41 31.4899 236.82 31.4899C237.08 31.4899 237.27 31.4599 237.46 31.3799V32.4199C237.25 32.4999 236.97 32.5599 236.57 32.5599C235.45 32.5599 234.86 31.9499 234.86 30.8799Z"></path>
<path fill="#81868A" d="M223 58.96H222V83.01H223V58.96Z"></path>
<path fill="#81868A" d="M218.01 60.27L222.5 52.5L226.99 60.27H218.01Z"></path>
<path fill="#81868A" d="M218.01 81.6899L222.5 89.4699L226.99 81.6899H218.01Z"></path>
<path fill="#81868A" d="M223 247.42H222V276.04H223V247.42Z"></path>
<path fill="#81868A" d="M218.01 248.74L222.5 240.97L226.99 248.74H218.01Z"></path>
<path fill="#81868A" d="M218.01 274.73L222.5 282.5L226.99 274.73H218.01Z"></path>
<path fill="#81868A" d="M405.5 90V240H39.5V90H405.5ZM406.5 89H38.5V241H406.5V89Z"></path>
<path fill="#A6A4A4" d="M222.48 286C213.78 286 204.98 287.62 204.98 290.72V316.28C204.98 319.38 213.78 321 222.48 321C231.18 321 239.98 319.38 239.98 316.28V290.72C239.98 287.62 231.18 286 222.48 286ZM222.48 287.11C232.64 287.11 238.87 289.21 238.87 290.72C238.87 292.23 232.63 294.33 222.48 294.33C212.33 294.33 206.09 292.23 206.09 290.72C206.09 289.21 212.33 287.11 222.48 287.11ZM222.48 319.89C212.33 319.89 206.09 317.79 206.09 316.28V309.53C208.72 311.47 215.63 312.48 222.48 312.48C229.33 312.48 236.24 311.47 238.87 309.53V316.28C238.87 317.79 232.63 319.89 222.48 319.89ZM222.48 311.37C212.33 311.37 206.09 309.27 206.09 307.76V301.01C208.72 302.95 215.63 303.96 222.48 303.96C229.33 303.96 236.24 302.95 238.87 301.01V307.76C238.87 309.27 232.63 311.37 222.48 311.37ZM222.48 302.85C212.33 302.85 206.09 300.75 206.09 299.24V292.49C208.72 294.43 215.63 295.44 222.48 295.44C229.33 295.44 236.24 294.43 238.87 292.49V299.24C238.87 300.75 232.63 302.85 222.48 302.85Z"></path>
<path fill="#A6A4A4" d="M233.93 296.91C233.39 296.91 232.94 297.35 232.94 297.9C232.94 298.45 233.38 298.89 233.93 298.89C234.48 298.89 234.92 298.45 234.92 297.9C234.92 297.35 234.48 296.91 233.93 296.91Z"></path>
<path fill="#A6A4A4" d="M233.93 305.43C233.39 305.43 232.94 305.87 232.94 306.42C232.94 306.97 233.38 307.41 233.93 307.41C234.48 307.41 234.92 306.97 234.92 306.42C234.92 305.87 234.48 305.43 233.93 305.43Z"></path>
<path fill="#A6A4A4" d="M233.93 313.95C233.39 313.95 232.94 314.39 232.94 314.94C232.94 315.49 233.38 315.93 233.93 315.93C234.48 315.93 234.92 315.49 234.92 314.94C234.92 314.39 234.48 313.95 233.93 313.95Z"></path>
<path fill="#F0F0F1" d="M300.01 114.11H146.5V153.52H300.01V114.11Z"></path>
<path fill="#81868A" d="M299.5 114.61V153.02H147V114.61H299.51M300.51 113.61H146V154.02H300.51V113.61Z"></path>
<path fill="#172239" d="M203.16 135.51V130.72H204.61V135.4C204.61 136.82 205.06 137.4 206.21 137.4C207.36 137.4 207.89 136.9 207.89 135.3V130.71H209.34V135.42C209.34 137.44 208.25 138.56 206.2 138.56C204.26 138.56 203.16 137.5 203.16 135.51Z"></path>
<path fill="#172239" d="M211.08 130.72H212.53V138.46H211.08V130.72Z"></path>
<path fill="#172239" d="M216.93 130.72H218.37V137.31H221.67V138.46H216.93V130.72Z"></path>
<path fill="#172239" d="M222.37 136.89C222.37 135.57 223.65 135.09 225.27 135.09H225.97V134.8C225.97 134.04 225.71 133.66 224.94 133.66C224.26 133.66 223.92 133.98 223.86 134.55H222.59C222.7 133.23 223.75 132.68 225.01 132.68C226.27 132.68 227.27 133.2 227.27 134.75V138.46H225.98V137.77C225.61 138.26 225.11 138.57 224.25 138.57C223.21 138.57 222.36 138.07 222.36 136.89H222.37ZM225.97 136.48V135.92H225.3C224.3 135.92 223.67 136.15 223.67 136.84C223.67 137.32 223.93 137.63 224.58 137.63C225.38 137.63 225.98 137.21 225.98 136.48H225.97Z"></path>
<path fill="#172239" d="M230.27 137.88L228.03 132.8H229.45L230.95 136.45L232.33 132.8H233.61L230.53 140.39H229.24L230.27 137.88Z"></path>
<path fill="#172239" d="M234 135.69V135.6C234 133.85 235.2 132.68 236.81 132.68C238.22 132.68 239.48 133.51 239.48 135.54V135.92H235.34C235.38 136.99 235.92 137.6 236.9 137.6C237.69 137.6 238.1 137.29 238.2 136.73H239.47C239.29 137.92 238.32 138.57 236.87 138.57C235.2 138.57 234 137.48 234 135.69ZM238.19 135.04C238.13 134.07 237.63 133.63 236.82 133.63C236.01 133.63 235.5 134.16 235.37 135.04H238.19Z"></path>
<path fill="#172239" d="M240.65 132.8H241.96V133.86C242.32 133.15 242.85 132.72 243.8 132.71V133.93C242.65 133.94 241.96 134.31 241.96 135.51V138.45H240.65V132.79V132.8Z"></path>
<path fill="#F0F0F1" d="M212.51 176.11H59V215.52H212.51V176.11Z"></path>
<path fill="#81868A" d="M212 176.61V215.02H59.5V176.61H212ZM213 175.61H58.5V216.02H213V175.61Z"></path>
<path fill="#172239" d="M98.45 192.72H101.22C102.81 192.72 103.75 193.33 103.75 194.73V194.77C103.75 195.54 103.4 196.14 102.53 196.41C103.58 196.64 104.08 197.21 104.08 198.24V198.28C104.08 199.72 103.13 200.44 101.43 200.44H98.45V192.7V192.72ZM101.05 195.98C102 195.98 102.37 195.63 102.37 194.84V194.8C102.37 194.06 101.95 193.75 101.03 193.75H99.86V195.98H101.05ZM101.26 199.43C102.22 199.43 102.67 199 102.67 198.2V198.16C102.67 197.36 102.23 196.96 101.17 196.96H99.87V199.44H101.27L101.26 199.43Z"></path>
<path fill="#172239" d="M105.26 198.42V194.8H106.57V198.27C106.57 199.12 106.93 199.51 107.68 199.51C108.38 199.51 109 199.06 109 198.16V194.8H110.31V200.46H109V199.57C108.72 200.12 108.12 200.57 107.2 200.57C106.09 200.57 105.25 199.93 105.25 198.43L105.26 198.42Z"></path>
<path fill="#172239" d="M111.42 198.69H112.65C112.72 199.26 113.01 199.6 113.77 199.6C114.47 199.6 114.79 199.35 114.79 198.87C114.79 198.39 114.41 198.23 113.58 198.09C112.09 197.85 111.54 197.43 111.54 196.37C111.54 195.23 112.6 194.67 113.66 194.67C114.82 194.67 115.74 195.1 115.88 196.38H114.67C114.56 195.86 114.27 195.62 113.66 195.62C113.1 195.62 112.76 195.89 112.76 196.29C112.76 196.69 113.03 196.86 113.93 197.01C115.26 197.22 116.05 197.54 116.05 198.74C116.05 199.94 115.24 200.55 113.79 200.55C112.34 200.55 111.48 199.88 111.42 198.68V198.69Z"></path>
<path fill="#172239" d="M117.09 193.12C117.09 192.69 117.44 192.36 117.87 192.36C118.3 192.36 118.65 192.68 118.65 193.12C118.65 193.56 118.3 193.87 117.87 193.87C117.44 193.87 117.09 193.55 117.09 193.12ZM117.23 194.8H118.54V200.46H117.23V194.8Z"></path>
<path fill="#172239" d="M120.12 194.8H121.43V195.7C121.7 195.15 122.33 194.68 123.26 194.68C124.4 194.68 125.2 195.34 125.2 196.9V200.46H123.89V197.02C123.89 196.17 123.54 195.78 122.77 195.78C122.03 195.78 121.44 196.23 121.44 197.13V200.46H120.13V194.8H120.12Z"></path>
<path fill="#172239" d="M126.32 197.69V197.6C126.32 195.85 127.52 194.68 129.13 194.68C130.54 194.68 131.8 195.51 131.8 197.54V197.92H127.66C127.7 198.99 128.24 199.6 129.22 199.6C130.01 199.6 130.42 199.29 130.52 198.73H131.79C131.61 199.92 130.64 200.57 129.19 200.57C127.52 200.57 126.32 199.48 126.32 197.69ZM130.51 197.04C130.44 196.07 129.95 195.63 129.14 195.63C128.33 195.63 127.82 196.16 127.69 197.04H130.51Z"></path>
<path fill="#172239" d="M132.59 198.69H133.82C133.88 199.26 134.18 199.6 134.94 199.6C135.64 199.6 135.96 199.35 135.96 198.87C135.96 198.39 135.58 198.23 134.75 198.09C133.26 197.85 132.71 197.43 132.71 196.37C132.71 195.23 133.77 194.67 134.83 194.67C135.99 194.67 136.91 195.1 137.05 196.38H135.84C135.73 195.86 135.44 195.62 134.83 195.62C134.27 195.62 133.93 195.89 133.93 196.29C133.93 196.69 134.2 196.86 135.1 197.01C136.43 197.22 137.22 197.54 137.22 198.74C137.22 199.94 136.41 200.55 134.96 200.55C133.51 200.55 132.64 199.88 132.59 198.68V198.69Z"></path>
<path fill="#172239" d="M137.93 198.69H139.16C139.23 199.26 139.52 199.6 140.28 199.6C140.98 199.6 141.3 199.35 141.3 198.87C141.3 198.39 140.92 198.23 140.09 198.09C138.6 197.85 138.05 197.43 138.05 196.37C138.05 195.23 139.11 194.67 140.17 194.67C141.33 194.67 142.25 195.1 142.39 196.38H141.18C141.07 195.86 140.78 195.62 140.17 195.62C139.61 195.62 139.27 195.89 139.27 196.29C139.27 196.69 139.54 196.86 140.44 197.01C141.77 197.22 142.56 197.54 142.56 198.74C142.56 199.94 141.75 200.55 140.3 200.55C138.85 200.55 137.99 199.88 137.93 198.68V198.69Z"></path>
<path fill="#172239" d="M146.38 192.72H147.82V199.31H151.12V200.46H146.38V192.72Z"></path>
<path fill="#172239" d="M151.74 197.69V197.6C151.74 195.85 152.98 194.68 154.65 194.68C156.32 194.68 157.55 195.84 157.55 197.57V197.66C157.55 199.42 156.31 200.57 154.64 200.57C152.97 200.57 151.74 199.41 151.74 197.69ZM156.21 197.67V197.59C156.21 196.42 155.63 195.71 154.65 195.71C153.67 195.71 153.08 196.41 153.08 197.58V197.67C153.08 198.83 153.65 199.55 154.65 199.55C155.65 199.55 156.21 198.82 156.21 197.67Z"></path>
<path fill="#172239" d="M158.42 200.65H159.74C159.85 201.21 160.28 201.54 161.14 201.54C162.16 201.54 162.72 201.03 162.72 200.01V199.18C162.41 199.72 161.7 200.23 160.87 200.23C159.45 200.23 158.36 199.17 158.36 197.54V197.46C158.36 195.87 159.44 194.68 160.9 194.68C161.83 194.68 162.39 195.1 162.72 195.66V194.79H164.03V200.03C164.02 201.7 162.91 202.53 161.15 202.53C159.39 202.53 158.58 201.73 158.42 200.65ZM162.76 197.49V197.41C162.76 196.34 162.18 195.7 161.23 195.7C160.28 195.7 159.69 196.4 159.69 197.43V197.52C159.69 198.57 160.34 199.22 161.18 199.22C162.09 199.22 162.75 198.57 162.75 197.49H162.76Z"></path>
<path fill="#172239" d="M165.46 193.12C165.46 192.69 165.81 192.36 166.24 192.36C166.67 192.36 167.02 192.68 167.02 193.12C167.02 193.56 166.67 193.87 166.24 193.87C165.81 193.87 165.46 193.55 165.46 193.12ZM165.6 194.8H166.91V200.46H165.6V194.8Z"></path>
<path fill="#172239" d="M168.12 197.7V197.61C168.12 195.81 169.4 194.68 170.98 194.68C172.23 194.68 173.41 195.24 173.57 196.8H172.3C172.19 196.04 171.69 195.73 171 195.73C170.1 195.73 169.46 196.42 169.46 197.59V197.68C169.46 198.91 170.07 199.56 171.03 199.56C171.72 199.56 172.32 199.15 172.39 198.35H173.59C173.49 199.65 172.51 200.57 170.97 200.57C169.35 200.57 168.11 199.51 168.11 197.7H168.12Z"></path>
<path fill="#F0F0F1" d="M387.51 176.11H234V215.52H387.51V176.11Z"></path>
<path fill="#81868A" d="M387 176.61V215.02H234.5V176.61H387.01M388.01 175.61H233.5V216.02H388.01V175.61Z"></path>
<path fill="#172239" d="M284.41 192.72H286.76C289.45 192.72 290.76 194.26 290.76 196.51V196.61C290.76 198.86 289.45 200.46 286.74 200.46H284.41V192.72ZM286.69 199.32C288.42 199.32 289.25 198.32 289.25 196.62V196.53C289.25 194.86 288.49 193.86 286.67 193.86H285.84V199.32H286.68H286.69Z"></path>
<path fill="#172239" d="M291.61 198.89C291.61 197.57 292.89 197.09 294.51 197.09H295.21V196.8C295.21 196.04 294.95 195.66 294.18 195.66C293.5 195.66 293.16 195.98 293.1 196.55H291.83C291.94 195.23 292.99 194.68 294.25 194.68C295.51 194.68 296.51 195.2 296.51 196.75V200.46H295.22V199.77C294.85 200.26 294.35 200.57 293.49 200.57C292.45 200.57 291.6 200.07 291.6 198.89H291.61ZM295.21 198.48V197.92H294.54C293.54 197.92 292.91 198.15 292.91 198.84C292.91 199.32 293.17 199.63 293.82 199.63C294.62 199.63 295.22 199.21 295.22 198.48H295.21Z"></path>
<path fill="#172239" d="M298.24 198.88V195.79H297.48V194.81H298.24V193.57H299.55V194.81H300.79V195.79H299.55V198.76C299.55 199.26 299.79 199.49 300.2 199.49C300.46 199.49 300.65 199.46 300.84 199.38V200.42C300.63 200.5 300.35 200.56 299.95 200.56C298.83 200.56 298.24 199.95 298.24 198.88Z"></path>
<path fill="#172239" d="M301.65 198.89C301.65 197.57 302.93 197.09 304.55 197.09H305.25V196.8C305.25 196.04 304.99 195.66 304.22 195.66C303.54 195.66 303.2 195.98 303.14 196.55H301.87C301.98 195.23 303.03 194.68 304.29 194.68C305.55 194.68 306.55 195.2 306.55 196.75V200.46H305.26V199.77C304.89 200.26 304.39 200.57 303.53 200.57C302.49 200.57 301.64 200.07 301.64 198.89H301.65ZM305.25 198.48V197.92H304.58C303.58 197.92 302.95 198.15 302.95 198.84C302.95 199.32 303.21 199.63 303.86 199.63C304.66 199.63 305.26 199.21 305.26 198.48H305.25Z"></path>
<path fill="#172239" d="M310.74 192.72H312.18V199.31H315.48V200.46H310.74V192.72Z"></path>
<path fill="#172239" d="M316.18 198.89C316.18 197.57 317.46 197.09 319.08 197.09H319.78V196.8C319.78 196.04 319.52 195.66 318.75 195.66C318.07 195.66 317.73 195.98 317.67 196.55H316.4C316.51 195.23 317.56 194.68 318.82 194.68C320.08 194.68 321.08 195.2 321.08 196.75V200.46H319.79V199.77C319.42 200.26 318.92 200.57 318.06 200.57C317.02 200.57 316.17 200.07 316.17 198.89H316.18ZM319.78 198.48V197.92H319.11C318.11 197.92 317.48 198.15 317.48 198.84C317.48 199.32 317.74 199.63 318.39 199.63C319.19 199.63 319.79 199.21 319.79 198.48H319.78Z"></path>
<path fill="#172239" d="M324.09 199.88L321.85 194.8H323.27L324.77 198.45L326.15 194.8H327.43L324.35 202.39H323.06L324.09 199.88Z"></path>
<path fill="#172239" d="M327.82 197.69V197.6C327.82 195.85 329.02 194.68 330.63 194.68C332.04 194.68 333.3 195.51 333.3 197.54V197.92H329.16C329.2 198.99 329.74 199.6 330.72 199.6C331.51 199.6 331.92 199.29 332.02 198.73H333.29C333.11 199.92 332.14 200.57 330.69 200.57C329.02 200.57 327.82 199.48 327.82 197.69ZM332.01 197.04C331.95 196.07 331.45 195.63 330.64 195.63C329.83 195.63 329.32 196.16 329.19 197.04H332.01Z"></path>
<path fill="#172239" d="M334.46 194.8H335.77V195.86C336.13 195.15 336.66 194.72 337.61 194.71V195.93C336.46 195.94 335.77 196.31 335.77 197.51V200.45H334.46V194.79V194.8Z"></path>
<path fill="#4E545B" d="M61.22 73.89H63L64.88 78.77L66.72 73.89H68.48V81.04H67.15V75.64L65.02 81.04H64.59L62.42 75.64V81.04H61.22V73.89Z"></path>
<path fill="#4E545B" d="M69.51 78.48V78.4C69.51 76.78 70.66 75.7 72.2 75.7C73.74 75.7 74.88 76.77 74.88 78.37V78.45C74.88 80.08 73.73 81.14 72.19 81.14C70.65 81.14 69.51 80.07 69.51 78.48ZM73.64 78.46V78.39C73.64 77.31 73.1 76.65 72.2 76.65C71.3 76.65 70.75 77.3 70.75 78.38V78.46C70.75 79.53 71.28 80.2 72.2 80.2C73.12 80.2 73.64 79.53 73.64 78.46Z"></path>
<path fill="#4E545B" d="M75.8599 75.81H77.0699V76.64C77.3199 76.13 77.8999 75.7 78.7599 75.7C79.8099 75.7 80.5499 76.31 80.5499 77.75V81.04H79.3399V77.86C79.3399 77.07 79.0199 76.71 78.2999 76.71C77.6199 76.71 77.0699 77.13 77.0699 77.96V81.04H75.8599V75.81Z"></path>
<path fill="#4E545B" d="M81.48 78.48V78.4C81.48 76.78 82.63 75.7 84.17 75.7C85.71 75.7 86.85 76.77 86.85 78.37V78.45C86.85 80.08 85.7 81.14 84.16 81.14C82.62 81.14 81.48 80.07 81.48 78.48ZM85.61 78.46V78.39C85.61 77.31 85.07 76.65 84.17 76.65C83.27 76.65 82.72 77.3 82.72 78.38V78.46C82.72 79.53 83.25 80.2 84.17 80.2C85.09 80.2 85.61 79.53 85.61 78.46Z"></path>
<path fill="#4E545B" d="M87.8599 73.39H89.0699V81.04H87.8599V73.39Z"></path>
<path fill="#4E545B" d="M90.3301 74.2601C90.3301 73.8601 90.6501 73.5601 91.0501 73.5601C91.4501 73.5601 91.7701 73.8601 91.7701 74.2601C91.7701 74.6601 91.4501 74.9501 91.0501 74.9501C90.6501 74.9501 90.3301 74.6501 90.3301 74.2601ZM90.4601 75.8101H91.6701V81.0401H90.4601V75.8101Z"></path>
<path fill="#4E545B" d="M93.23 79.58V76.72H92.53V75.81H93.23V74.66H94.44V75.81H95.59V76.72H94.44V79.47C94.44 79.93 94.66 80.14 95.04 80.14C95.28 80.14 95.46 80.11 95.63 80.04V81C95.44 81.07 95.18 81.13 94.81 81.13C93.77 81.13 93.23 80.57 93.23 79.58Z"></path>
<path fill="#4E545B" d="M96.6099 73.39H97.8199V76.64C98.0699 76.13 98.6499 75.7 99.5099 75.7C100.56 75.7 101.3 76.31 101.3 77.75V81.04H100.09V77.86C100.09 77.07 99.7699 76.71 99.0499 76.71C98.3699 76.71 97.8199 77.13 97.8199 77.96V81.04H96.6099V73.39Z"></path>
<path fill="#4E545B" d="M490.795 131H492.235V120.164L496.645 131H497.131L501.397 120.164V131H502.963V118.13H500.803L496.951 128.156L492.973 118.13H490.795V131ZM509.827 129.92C507.919 129.92 506.749 128.516 506.749 126.374V126.23C506.749 124.07 507.937 122.666 509.827 122.666C511.699 122.666 512.905 124.07 512.905 126.248V126.374C512.905 128.498 511.717 129.92 509.827 129.92ZM509.809 131.162C512.491 131.162 514.453 129.2 514.453 126.356V126.212C514.453 123.386 512.491 121.424 509.827 121.424C507.163 121.424 505.201 123.404 505.201 126.23V126.374C505.201 129.128 507.127 131.162 509.809 131.162ZM516.566 131H518.06V125.294C518.06 123.602 519.302 122.72 520.688 122.72C522.2 122.72 522.902 123.458 522.902 125.114V131H524.396V125.222C524.396 122.486 523.028 121.424 521.084 121.424C519.536 121.424 518.492 122.198 518.06 123.08V121.586H516.566V131ZM531.048 129.92C529.14 129.92 527.97 128.516 527.97 126.374V126.23C527.97 124.07 529.158 122.666 531.048 122.666C532.92 122.666 534.126 124.07 534.126 126.248V126.374C534.126 128.498 532.938 129.92 531.048 129.92ZM531.03 131.162C533.712 131.162 535.674 129.2 535.674 126.356V126.212C535.674 123.386 533.712 121.424 531.048 121.424C528.384 121.424 526.422 123.404 526.422 126.23V126.374C526.422 129.128 528.348 131.162 531.03 131.162ZM537.823 131H539.335V117.086H537.823V131ZM542.229 131H543.723V121.586H542.229V131ZM542.949 119.624C543.489 119.624 543.939 119.174 543.939 118.634C543.939 118.094 543.489 117.644 542.949 117.644C542.409 117.644 541.959 118.094 541.959 118.634C541.959 119.174 542.409 119.624 542.949 119.624ZM549.443 131.126C550.055 131.126 550.415 131.036 550.721 130.928V129.668C550.397 129.794 550.037 129.866 549.569 129.866C548.813 129.866 548.399 129.416 548.399 128.498V122.846H550.595V121.586H548.399V119.444H546.905V121.586H545.555V122.846H546.905V128.642C546.905 130.118 547.733 131.126 549.443 131.126ZM552.779 131H554.273V125.294C554.273 123.602 555.515 122.72 556.901 122.72C558.413 122.72 559.115 123.458 559.115 125.114V131H560.609V125.222C560.609 122.486 559.241 121.424 557.297 121.424C555.749 121.424 554.705 122.198 554.273 123.08V117.086H552.779V131ZM502.847 157H504.755L508.139 147.586H506.591L503.837 155.488L501.047 147.586H499.427L502.847 157ZM513.493 157.162C515.617 157.162 517.183 156.172 517.507 154.282H516.013C515.815 155.38 514.969 155.92 513.511 155.92C511.585 155.92 510.559 154.732 510.487 152.59H517.579V152.104C517.579 148.738 515.527 147.424 513.349 147.424C510.757 147.424 508.939 149.404 508.939 152.248V152.392C508.939 155.29 510.829 157.162 513.493 157.162ZM510.541 151.384C510.793 149.71 511.819 148.666 513.349 148.666C514.897 148.666 515.905 149.44 516.049 151.384H510.541ZM519.671 157H521.165V151.834C521.165 149.512 522.371 148.918 524.261 148.828V147.424C522.569 147.478 521.759 148.216 521.165 149.278V147.586H519.671V157ZM529.067 157.162C531.353 157.162 532.523 156.01 532.523 154.3C532.523 152.302 531.155 151.87 529.211 151.51C527.483 151.204 527.015 150.862 527.015 150.016C527.015 149.206 527.717 148.666 528.797 148.666C529.985 148.666 530.561 149.116 530.777 150.142H532.217C531.965 148.108 530.507 147.424 528.815 147.424C527.339 147.424 525.629 148.324 525.629 150.07C525.629 151.708 526.457 152.392 528.905 152.842C530.363 153.112 531.101 153.436 531.101 154.426C531.101 155.434 530.471 155.92 529.049 155.92C527.537 155.92 526.943 155.218 526.835 154.102H525.377C525.467 156.028 526.817 157.162 529.067 157.162ZM537.785 157.162C539.297 157.162 540.341 156.388 540.773 155.506V157H542.267V147.586H540.773V153.292C540.773 154.984 539.513 155.866 538.181 155.866C536.705 155.866 536.003 155.128 536.003 153.472V147.586H534.509V153.544C534.509 156.136 535.913 157.162 537.785 157.162ZM548.003 157.162C550.289 157.162 551.459 156.01 551.459 154.3C551.459 152.302 550.091 151.87 548.147 151.51C546.419 151.204 545.951 150.862 545.951 150.016C545.951 149.206 546.653 148.666 547.733 148.666C548.921 148.666 549.497 149.116 549.713 150.142H551.153C550.901 148.108 549.443 147.424 547.751 147.424C546.275 147.424 544.565 148.324 544.565 150.07C544.565 151.708 545.393 152.392 547.841 152.842C549.299 153.112 550.037 153.436 550.037 154.426C550.037 155.434 549.407 155.92 547.985 155.92C546.473 155.92 545.879 155.218 545.771 154.102H544.313C544.403 156.028 545.753 157.162 548.003 157.162ZM469.425 183H470.919V177.24C470.919 175.548 472.179 174.72 473.403 174.72C474.699 174.72 475.401 175.404 475.401 177.06V183H476.895V177.24C476.895 175.548 478.155 174.72 479.379 174.72C480.675 174.72 481.377 175.404 481.377 177.06V183H482.871V177.168C482.871 174.432 481.395 173.424 479.703 173.424C478.533 173.424 477.129 173.964 476.481 175.188C475.995 173.928 474.933 173.424 473.727 173.424C472.377 173.424 471.351 174.144 470.919 175.026V173.586H469.425V183ZM485.644 183H487.138V173.586H485.644V183ZM486.364 171.624C486.904 171.624 487.354 171.174 487.354 170.634C487.354 170.094 486.904 169.644 486.364 169.644C485.824 169.644 485.374 170.094 485.374 170.634C485.374 171.174 485.824 171.624 486.364 171.624ZM493.902 183.162C496.17 183.162 497.808 181.65 498.006 179.616H496.62C496.458 181.146 495.252 181.92 493.92 181.92C492.102 181.92 490.842 180.696 490.842 178.392V178.248C490.842 176.034 492.156 174.666 493.866 174.666C495.162 174.666 496.242 175.224 496.476 176.718H497.952C497.664 174.324 495.828 173.424 493.866 173.424C491.346 173.424 489.294 175.368 489.294 178.248V178.392C489.294 181.308 491.274 183.162 493.902 183.162ZM500.062 183H501.556V177.834C501.556 175.512 502.762 174.918 504.652 174.828V173.424C502.96 173.478 502.15 174.216 501.556 175.278V173.586H500.062V183ZM510.29 181.92C508.382 181.92 507.212 180.516 507.212 178.374V178.23C507.212 176.07 508.4 174.666 510.29 174.666C512.162 174.666 513.368 176.07 513.368 178.248V178.374C513.368 180.498 512.18 181.92 510.29 181.92ZM510.272 183.162C512.954 183.162 514.916 181.2 514.916 178.356V178.212C514.916 175.386 512.954 173.424 510.29 173.424C507.626 173.424 505.664 175.404 505.664 178.23V178.374C505.664 181.128 507.59 183.162 510.272 183.162ZM519.945 183.162C522.231 183.162 523.401 182.01 523.401 180.3C523.401 178.302 522.033 177.87 520.089 177.51C518.361 177.204 517.893 176.862 517.893 176.016C517.893 175.206 518.595 174.666 519.675 174.666C520.863 174.666 521.439 175.116 521.655 176.142H523.095C522.843 174.108 521.385 173.424 519.693 173.424C518.217 173.424 516.507 174.324 516.507 176.07C516.507 177.708 517.335 178.392 519.783 178.842C521.241 179.112 521.979 179.436 521.979 180.426C521.979 181.434 521.349 181.92 519.927 181.92C518.415 181.92 517.821 181.218 517.713 180.102H516.255C516.345 182.028 517.695 183.162 519.945 183.162ZM529.329 183.162C531.453 183.162 533.019 182.172 533.343 180.282H531.849C531.651 181.38 530.805 181.92 529.347 181.92C527.421 181.92 526.395 180.732 526.323 178.59H533.415V178.104C533.415 174.738 531.363 173.424 529.185 173.424C526.593 173.424 524.775 175.404 524.775 178.248V178.392C524.775 181.29 526.665 183.162 529.329 183.162ZM526.377 177.384C526.629 175.71 527.655 174.666 529.185 174.666C530.733 174.666 531.741 175.44 531.885 177.384H526.377ZM535.508 183H537.002V177.834C537.002 175.512 538.208 174.918 540.098 174.828V173.424C538.406 173.478 537.596 174.216 537.002 175.278V173.586H535.508V183ZM544.521 183H546.429L549.813 173.586H548.265L545.511 181.488L542.721 173.586H541.101L544.521 183ZM551.614 183H553.108V173.586H551.614V183ZM552.334 171.624C552.874 171.624 553.324 171.174 553.324 170.634C553.324 170.094 552.874 169.644 552.334 169.644C551.794 169.644 551.344 170.094 551.344 170.634C551.344 171.174 551.794 171.624 552.334 171.624ZM559.872 183.162C562.14 183.162 563.778 181.65 563.976 179.616H562.59C562.428 181.146 561.222 181.92 559.89 181.92C558.072 181.92 556.812 180.696 556.812 178.392V178.248C556.812 176.034 558.126 174.666 559.836 174.666C561.132 174.666 562.212 175.224 562.446 176.718H563.922C563.634 174.324 561.798 173.424 559.836 173.424C557.316 173.424 555.264 175.368 555.264 178.248V178.392C555.264 181.308 557.244 183.162 559.872 183.162ZM569.884 183.162C572.008 183.162 573.574 182.172 573.898 180.282H572.404C572.206 181.38 571.36 181.92 569.902 181.92C567.976 181.92 566.95 180.732 566.878 178.59H573.97V178.104C573.97 174.738 571.918 173.424 569.74 173.424C567.148 173.424 565.33 175.404 565.33 178.248V178.392C565.33 181.29 567.22 183.162 569.884 183.162ZM566.932 177.384C567.184 175.71 568.21 174.666 569.74 174.666C571.288 174.666 572.296 175.44 572.44 177.384H566.932ZM579.066 183.162C581.352 183.162 582.522 182.01 582.522 180.3C582.522 178.302 581.154 177.87 579.21 177.51C577.482 177.204 577.014 176.862 577.014 176.016C577.014 175.206 577.716 174.666 578.796 174.666C579.984 174.666 580.56 175.116 580.776 176.142H582.216C581.964 174.108 580.506 173.424 578.814 173.424C577.338 173.424 575.628 174.324 575.628 176.07C575.628 177.708 576.456 178.392 578.904 178.842C580.362 179.112 581.1 179.436 581.1 180.426C581.1 181.434 580.47 181.92 579.048 181.92C577.536 181.92 576.942 181.218 576.834 180.102H575.376C575.466 182.028 576.816 183.162 579.066 183.162ZM479.195 209.162C480.581 209.162 481.427 208.694 482.129 207.812V209H483.623V202.79C483.623 200.162 481.985 199.424 480.185 199.424C478.367 199.424 476.657 200.216 476.459 202.358H477.953C478.097 201.206 478.817 200.666 480.113 200.666C481.553 200.666 482.129 201.296 482.129 202.79V203.474H480.779C478.367 203.474 476.063 204.212 476.063 206.39C476.063 208.316 477.449 209.162 479.195 209.162ZM479.339 207.974C478.025 207.974 477.557 207.362 477.557 206.39C477.557 205.004 478.943 204.536 480.833 204.536H482.129V205.706C482.129 207.164 480.923 207.974 479.339 207.974ZM486.357 209H487.851V203.834C487.851 201.512 489.057 200.918 490.947 200.828V199.424C489.255 199.478 488.445 200.216 487.851 201.278V199.586H486.357V209ZM496.567 209.162C498.835 209.162 500.473 207.65 500.671 205.616H499.285C499.123 207.146 497.917 207.92 496.585 207.92C494.767 207.92 493.507 206.696 493.507 204.392V204.248C493.507 202.034 494.821 200.666 496.531 200.666C497.827 200.666 498.907 201.224 499.141 202.718H500.617C500.329 200.324 498.493 199.424 496.531 199.424C494.011 199.424 491.959 201.368 491.959 204.248V204.392C491.959 207.308 493.939 209.162 496.567 209.162ZM502.727 209H504.221V203.294C504.221 201.602 505.463 200.72 506.849 200.72C508.361 200.72 509.063 201.458 509.063 203.114V209H510.557V203.222C510.557 200.486 509.189 199.424 507.245 199.424C505.697 199.424 504.653 200.198 504.221 201.08V195.086H502.727V209ZM513.321 209H514.815V199.586H513.321V209ZM514.041 197.624C514.581 197.624 515.031 197.174 515.031 196.634C515.031 196.094 514.581 195.644 514.041 195.644C513.501 195.644 513.051 196.094 513.051 196.634C513.051 197.174 513.501 197.624 514.041 197.624ZM520.535 209.126C521.147 209.126 521.507 209.036 521.813 208.928V207.668C521.489 207.794 521.129 207.866 520.661 207.866C519.905 207.866 519.491 207.416 519.491 206.498V200.846H521.687V199.586H519.491V197.444H517.997V199.586H516.647V200.846H517.997V206.642C517.997 208.118 518.825 209.126 520.535 209.126ZM527.723 209.162C529.847 209.162 531.413 208.172 531.737 206.282H530.243C530.045 207.38 529.199 207.92 527.741 207.92C525.815 207.92 524.789 206.732 524.717 204.59H531.809V204.104C531.809 200.738 529.757 199.424 527.579 199.424C524.987 199.424 523.169 201.404 523.169 204.248V204.392C523.169 207.29 525.059 209.162 527.723 209.162ZM524.771 203.384C525.023 201.71 526.049 200.666 527.579 200.666C529.127 200.666 530.135 201.44 530.279 203.384H524.771ZM537.807 209.162C540.075 209.162 541.713 207.65 541.911 205.616H540.525C540.363 207.146 539.157 207.92 537.825 207.92C536.007 207.92 534.747 206.696 534.747 204.392V204.248C534.747 202.034 536.061 200.666 537.771 200.666C539.067 200.666 540.147 201.224 540.381 202.718H541.857C541.569 200.324 539.733 199.424 537.771 199.424C535.251 199.424 533.199 201.368 533.199 204.248V204.392C533.199 207.308 535.179 209.162 537.807 209.162ZM546.829 209.126C547.441 209.126 547.801 209.036 548.107 208.928V207.668C547.783 207.794 547.423 207.866 546.955 207.866C546.199 207.866 545.785 207.416 545.785 206.498V200.846H547.981V199.586H545.785V197.444H544.291V199.586H542.941V200.846H544.291V206.642C544.291 208.118 545.119 209.126 546.829 209.126ZM553.352 209.162C554.864 209.162 555.908 208.388 556.34 207.506V209H557.834V199.586H556.34V205.292C556.34 206.984 555.08 207.866 553.748 207.866C552.272 207.866 551.57 207.128 551.57 205.472V199.586H550.076V205.544C550.076 208.136 551.48 209.162 553.352 209.162ZM560.653 209H562.147V203.834C562.147 201.512 563.353 200.918 565.243 200.828V199.424C563.551 199.478 562.741 200.216 562.147 201.278V199.586H560.653V209ZM570.809 209.162C572.933 209.162 574.499 208.172 574.823 206.282H573.329C573.131 207.38 572.285 207.92 570.827 207.92C568.901 207.92 567.875 206.732 567.803 204.59H574.895V204.104C574.895 200.738 572.843 199.424 570.665 199.424C568.073 199.424 566.255 201.404 566.255 204.248V204.392C566.255 207.29 568.145 209.162 570.809 209.162ZM567.857 203.384C568.109 201.71 569.135 200.666 570.665 200.666C572.213 200.666 573.221 201.44 573.365 203.384H567.857Z"></path>
</svg>
