<svg xml:space="preserve" style="enable-background:new 0 0 120 120;" viewBox="0 0 120 120" y="0px" x="0px" xmlns:xlink="http://www.w3.org/1999/xlink" xmlns="http://www.w3.org/2000/svg" version="1.1">
<style type="text/css">
	.st0{fill:#A32422;}
	.st1{fill:#DC382D;}
</style>
<g id="Layer_2">
	<polygon points="76.1,11.2 76.1,108.5 60,116.1 2.2,90.3 2.2,75.1 60,101.4 60,92.5 2.2,66.4 2.2,51.4 60,77.4 
		60,68.7 2.2,42.3 2.2,27.6 60,53.9 60,18.8" class="st0"></polygon>
	<polygon points="97.2,30.6 97.2,99.2 80.4,106.9 80.4,37.9" class="st0"></polygon>
	<polygon points="118,49.9 118,89.4 101.2,97 101.2,57.2" class="st0"></polygon>
</g>
<g id="Layer_3">
	<polygon points="76.1,11.2 60,4.5 2.2,27.6 60,53.9 60,18.8" class="st1"></polygon>
	<polygon points="60,68.7 60,77.4 2.2,51.4 12.3,46.9" class="st1"></polygon>
	<polygon points="60,92.5 60,101.4 2.2,75.1 11.5,70.6" class="st1"></polygon>
	<polygon points="80.4,37.9 97.2,30.6 80.4,23.8" class="st1"></polygon>
	<polygon points="101.2,57.2 118,49.9 101.2,43.1" class="st1"></polygon>
</g>
</svg>
